<?xml version="1.0" encoding="UTF-8"?>
<svg id="Layer_2" data-name="Layer 2" xmlns="http://www.w3.org/2000/svg" xmlns:xlink="http://www.w3.org/1999/xlink" viewBox="0 0 723.73 165.87">
  <defs>
    <style>
      .cls-1, .cls-2 {
        fill: url(#linear-gradient);
      }

      .cls-1, .cls-3 {
        stroke: #fff;
        stroke-width: .45px;
      }

      .cls-1, .cls-3, .cls-4 {
        stroke-miterlimit: 10;
      }

      .cls-5 {
        fill: #fff;
        stroke-width: 0px;
      }

      .cls-6 {
        clip-path: url(#clippath);
      }

      .cls-3 {
        fill: none;
      }

      .cls-4 {
        fill: url(#linear-gradient-2);
        stroke: #111;
      }
    </style>
    <linearGradient id="linear-gradient" x1=".23" y1="82.94" x2="146.3" y2="82.94" gradientUnits="userSpaceOnUse">
      <stop offset="0" stop-color="#4a3b9c"/>
      <stop offset=".07" stop-color="#4943a6"/>
      <stop offset=".19" stop-color="#4859c1"/>
      <stop offset=".35" stop-color="#457ced"/>
      <stop offset=".4" stop-color="#458afe"/>
      <stop offset=".48" stop-color="#438bfd"/>
      <stop offset=".51" stop-color="#3c8efd"/>
      <stop offset=".53" stop-color="#3095fc"/>
      <stop offset=".54" stop-color="#239dfc"/>
      <stop offset=".66" stop-color="#16a5d8"/>
      <stop offset=".68" stop-color="#29add5"/>
      <stop offset=".71" stop-color="#3fb7d3"/>
      <stop offset=".74" stop-color="#50bed2"/>
      <stop offset=".78" stop-color="#5cc4d0"/>
      <stop offset=".84" stop-color="#63c7d0"/>
      <stop offset="1" stop-color="#65c8d0"/>
    </linearGradient>
    <clipPath id="clippath">
      <path class="cls-1" d="m146.17,90.96c-.03,6.01-.01,12.01-.01,18.02,0,5.97,0,11.94,0,17.91,0,2.62-2.3,4.38-4.82,3.73-1.59-.41-2.76-1.88-2.76-3.59-.02-4.71,0-9.42,0-14.13,0-4.52,0-9.05,0-13.57,0-.11,0-.22,0-.33-.03-1.12-.28-1.27-1.25-.72-2.56,1.47-5.12,2.97-7.67,4.45-.8.46-1.58.95-2.39,1.39-1.04.57-2.11.82-3.31.46-1.42-.43-2.65-1.75-2.71-3.54-.02-.44-.01-.89-.01-1.33,0-9.46.01-18.91-.01-28.37,0-1.55-.12-3.11-.24-4.65-.04-.54-.25-1.08-.4-1.61-.77-2.7-2.03-5.11-3.88-7.26-1.76-2.04-4.01-3.36-6.23-4.74-1.57-.97-3.18-1.88-4.77-2.82-2.67-1.58-5.35-3.16-8.01-4.75-1.59-.95-3.16-1.92-4.75-2.87-2-1.19-4.02-2.34-6.02-3.54-1.75-1.05-3.45-2.17-5.21-3.19-2.28-1.33-2.23-4.84-.24-6.25,1.32-.93,2.9-1.12,4.7-.05,3.18,1.89,6.34,3.81,9.5,5.72,3.99,2.4,7.98,4.82,11.98,7.21,3.14,1.88,6.35,3.65,9.44,5.6,3.32,2.1,6.03,4.85,8.07,8.26,1.05,1.76,1.94,3.58,2.53,5.52.57,1.87,1.06,3.75,1.14,5.75.35,8.19.07,16.38.17,24.57.02,1.84.03,1.88,1.62,1.01,1.88-1.03,3.71-2.14,5.56-3.21,1.51-.87,3.02-1.72,4.53-2.58,1.4-.8,2.72-.54,3.93.38,1.02.78,1.58,1.78,1.58,3.14Zm-69.22,22.21h0c0-4.78-.02-9.57,0-14.35.02-2.59-.5-5.07-1.31-7.5-1.2-3.6-3.18-6.74-5.79-9.48-2.27-2.39-5.03-4.1-7.87-5.71-2.99-1.69-5.97-3.4-8.95-5.12-1.63-.94-3.26-1.9-4.89-2.84-2.7-1.55-5.4-3.08-8.1-4.62-1.63-.94-3.26-1.89-4.9-2.82-1.8-1.02-3.62-2.01-5.41-3.05-2.49-1.45-4.95-2.96-7.44-4.4-4-2.3-8.03-4.57-12.04-6.86-1.09-.62-2.16-1.27-3.23-1.93-1.21-.75-2.53-1.23-3.91-.83-3.07.9-3.55,4.5-1.91,6.23.4.42.87.81,1.37,1.11,1.52.91,3.08,1.76,4.62,2.65,2.34,1.35,4.66,2.72,7,4.07,3.24,1.86,6.49,3.68,9.73,5.54,3.4,1.95,6.77,3.95,10.16,5.9,3.27,1.87,6.56,3.71,9.83,5.57,2.12,1.2,4.24,2.41,6.35,3.63,3.35,1.95,6.68,3.93,10.04,5.86,3.38,1.95,5.78,4.74,7.41,8.28,1.11,2.41,1.58,4.93,1.6,7.53.04,9.6.02,19.21.01,28.81,0,2.61,1.37,3.42,3.16,4.12.39.15.92.15,1.31,0,1.58-.58,3.19-1.57,3.17-4.01-.05-5.26-.02-10.53-.02-15.79Zm34.68-1.23c0-10.5,0-20.99,0-31.49,0-2.94-.34-5.81-1.27-8.62-1.25-3.8-3.27-7.11-6.01-9.99-2.09-2.2-4.62-3.8-7.23-5.3-2.34-1.34-4.67-2.7-7.01-4.04-1.38-.79-2.75-1.6-4.15-2.35-1.11-.6-2.3-.64-3.43-.13-1.39.63-2.18,1.8-2.25,3.32-.06,1.46.54,2.67,1.83,3.45,1.17.71,2.34,1.42,3.52,2.1,2.4,1.39,4.78,2.82,7.21,4.15,3.06,1.67,5.82,3.64,7.83,6.57,1.38,2.02,2.3,4.21,2.86,6.57.35,1.49.33,3.01.33,4.53,0,21.55,0,43.1-.02,64.64,0,1.72.73,2.89,2.12,3.74,1.25.77,3.14.52,4.24-.44,1.03-.9,1.43-2,1.43-3.34-.02-11.13,0-22.25,0-33.38Zm-21.47-30.78c1.18-1.36,1.45-3.44.32-4.79-.26-.31-.44-.68-.67-1.02-1.76-2.55-3.8-4.83-6.43-6.5-2.18-1.39-4.42-2.68-6.66-3.98-4.67-2.7-9.36-5.37-14.04-8.06-.83-.47-.86-.87-.07-1.36,1.35-.84,2.72-1.64,4.09-2.45,2.16-1.28,4.37-2.49,6.47-3.86,1.2-.78,1.88-2,1.7-3.51-.15-1.21-.81-2.14-1.8-2.81-.64-.44-1.33-.8-2-1.19-2.61-1.54-5.22-3.08-7.84-4.61-2.52-1.47-5.06-2.91-7.58-4.38-2.53-1.47-5.04-2.96-7.56-4.44-2.71-1.59-5.42-3.18-8.15-4.75-1.44-.83-2.94-1.57-4.37-2.42-1.78-1.07-4.94.6-5.16,3.12-.15,1.81.67,3.05,2.15,3.94,1.27.76,2.55,1.5,3.82,2.25,1.43.85,2.85,1.71,4.29,2.54,1.89,1.09,3.8,2.13,5.69,3.23,3.13,1.82,6.25,3.66,9.38,5.49,2.17,1.27,4.35,2.52,6.51,3.81.81.48.8.88,0,1.37-1.46.87-2.94,1.71-4.41,2.57-2.04,1.2-4.11,2.36-6.12,3.61-1.17.73-1.83,1.81-1.71,3.29-.17,1.51.71,2.53,1.87,3.25,2.45,1.51,4.98,2.9,7.49,4.33,3.4,1.94,6.81,3.87,10.21,5.83,2.73,1.57,5.44,3.15,8.16,4.73,2.51,1.46,4.55,3.4,6.08,5.88.47.77,1.07,1.43,1.92,1.78,1.49.63,3.5.2,4.42-.87Zm-47.74,48.56c0-3.48-.02-6.97,0-10.45.03-3.16-.76-6.15-1.89-9.06-.98-2.54-2.41-4.83-4.19-6.9-2.22-2.58-4.88-4.62-7.85-6.28-2.68-1.5-5.32-3.06-7.97-4.59-1.67-.96-3.32-1.95-4.99-2.91-2.11-1.21-4.23-2.42-6.36-3.6-1.29-.72-2.57-1.48-3.93-2.05-1.41-.59-3.14.08-4.08,1.23-1.45,1.77-.99,4.67,1.14,5.85,2,1.11,3.97,2.28,5.96,3.42,3.11,1.79,6.22,3.57,9.33,5.36,2.21,1.27,4.44,2.52,6.64,3.8,1.76,1.02,3.51,2.05,4.97,3.5,2.51,2.48,4.16,5.42,5.04,8.84.39,1.5.42,3,.42,4.52,0,6.86,0,13.72,0,20.57,0,.37-.02.74,0,1.11.12,1.72,1.25,3.03,2.54,3.47,2.7.92,5.18-.85,5.19-3.71.02-4.04,0-8.08,0-12.12h0Zm17.09-22.77c-.29-1.82-.74-3.62-1.23-5.4-.4-1.45-1.04-2.82-1.81-4.14-.9-1.53-1.86-3.02-3.02-4.36-2.98-3.47-6.88-5.67-10.84-7.77-.62-.33-1.43-.46-2.14-.41-1.57.11-3.03,1.48-3.32,3-.3,1.6.23,3.03,1.69,4.05.6.42,1.29.71,1.91,1.11,1.68,1.07,3.5,1.99,4.99,3.28,4.17,3.64,6.29,8.29,6.27,13.87-.01,6.63,0,13.27,0,19.9h0c0,6.93,0,13.86,0,20.79,0,.41-.01.82.01,1.22.13,1.88,1.41,3.33,3.18,3.62,1.83.3,3.58-.68,4.22-2.49.24-.68.32-1.45.32-2.17.02-13.23.03-26.46.01-39.7,0-1.48-.03-2.97-.26-4.42Zm34.77-10.37c0-.37.01-.74-.03-1.11-.22-1.87-1.39-3.03-3.41-3.39-1.4-.25-2.99.71-3.79,2.15-.39.71-.35,1.42-.35,2.15,0,9.56,0,19.12,0,28.69h.02c0,3.93,0,7.86,0,11.79,0,5.86,0,11.71.02,17.57,0,2.05,1.63,3.39,3.24,3.69,1.79.33,3.59-.77,4.16-2.55.2-.62.31-1.3.31-1.95-.03-5.85-.12-11.7-.13-17.56-.03-13.16-.02-26.31-.03-39.47Zm52.01-30.16c-.02-2.89-.03-5.78-.13-8.67-.08-2.23-.63-4.39-1.33-6.5-.82-2.47-2.06-4.74-3.61-6.84-1.83-2.46-3.96-4.62-6.58-6.21-4.2-2.55-8.46-5.01-12.74-7.45-.81-.46-1.79-.82-2.71-.85-1.7-.06-3.22,1.25-3.65,2.89-.35,1.36.08,3.27,1.7,4.25,1.04.63,2.1,1.25,3.16,1.86,2.37,1.37,4.74,2.73,7.1,4.11,1.95,1.13,3.91,2.25,5.53,3.86,1.3,1.29,2.41,2.72,3.27,4.32,1.62,3.03,2.27,6.3,2.24,9.72-.02,2.15,0,4.3,0,6.45h0c0,2.63-.02,5.26,0,7.89.02,1.66,1.05,2.91,2.69,3.41,1.58.47,3.2-.07,4.18-1.32.76-.98.88-2.1.88-3.25.01-2.56.02-5.12,0-7.67ZM66.79,7.88c.6.42,1.28.74,1.92,1.11,2.2,1.28,4.4,2.58,6.61,3.86,2.82,1.63,5.65,3.23,8.47,4.86,3.17,1.83,6.32,3.69,9.48,5.53,2.4,1.39,4.8,2.77,7.2,4.16,1.38.79,2.74,1.62,4.15,2.36.61.32,1.35.67,1.98.59,2-.25,3.91-1.58,3.73-4.07.13-1.66-.78-2.74-2.16-3.53-.9-.51-1.8-1-2.69-1.52-2.08-1.2-4.15-2.42-6.23-3.63-2.27-1.32-4.55-2.64-6.82-3.96-2.68-1.56-5.36-3.14-8.05-4.69-2.34-1.35-4.69-2.67-7.02-4.03-2.37-1.37-4.71-2.79-7.08-4.15-1.68-.96-3.87-.64-4.97.78-1.32,1.71-1.42,3.13-.18,4.89.41.58,1.06,1.02,1.66,1.44ZM25.09,125.52c0-1.64-.19-3.24-.7-4.8-.53-1.63-1.25-3.18-2.18-4.6-1.82-2.77-4.29-4.9-7.04-6.67-2.89-1.86-5.86-3.6-8.83-5.33-1.34-.78-2.75-.74-4.1.06-2.38,1.43-2.27,4.7-.2,6.29.61.47,1.31.84,1.97,1.24,2.27,1.39,4.54,2.77,6.8,4.18,1.51.95,2.92,2.02,4.14,3.34,1.01,1.09,1.7,2.36,2.06,3.75.39,1.54.57,3.12.51,4.73-.05,1.33.02,2.67,0,4-.01.69.13,1.3.45,1.91.77,1.45,2.44,2.3,4.09,2.07,1.36-.19,2.99-1.55,3.07-3.09.03-.59.13-1.17.2-1.76-.04,0-.07,0-.11,0-.04-1.78-.1-3.55-.11-5.33ZM14.44,38.19c1.59.85,3.14,1.77,4.7,2.68,1.85,1.08,3.67,2.2,5.53,3.25,2.6,1.48,5.22,2.9,7.82,4.38,1.73.99,3.41,2.07,5.15,3.03,3.17,1.75,6.27-.73,6.03-3.17-.15-.56-.25-1.13-.45-1.67-.45-1.21-1.59-1.7-2.59-2.3-1.14-.68-2.32-1.29-3.47-1.96-3.1-1.79-6.19-3.61-9.3-5.4-2.75-1.58-5.51-3.15-8.27-4.71-.64-.36-1.31-.7-2-.96-1.86-.68-3.93.21-4.73,2.01-.72,1.63-.15,3.89,1.57,4.81ZM2.67,70.93c.34.22.67.47,1.02.67,3.58,2.07,7.18,4.12,10.76,6.19,2.85,1.65,5.68,3.32,8.53,4.97,1.15.66,2.3,1.36,3.51,1.89,1.84.81,4.05-.05,4.87-1.88.88-1.96.13-4-1.49-4.94-1.28-.74-2.55-1.5-3.83-2.24-3.01-1.74-6.03-3.46-9.03-5.2-3.29-1.91-6.56-3.86-9.86-5.75-.7-.4-1.47-.72-2.22-.6-1.7,0-3.19.83-3.62,2.07-.52,1.49-.55,3.6,1.36,4.82ZM49.72,16.75c1.15.81,2.34,1.56,3.54,2.29,2.72,1.63,5.47,3.23,8.2,4.84,1.91,1.13,3.81,2.26,5.72,3.39.61.36,1.25.66,1.93.56,1.55.09,2.63-.59,3.36-1.83,1.05-1.77.62-4.14-1.45-5.39-1.33-.8-2.64-1.62-3.98-2.41-3.81-2.26-7.63-4.51-11.45-6.77-.6-.36-1.19-.75-1.82-1.06-1.46-.7-3.23-.39-4.32.7-1.08,1.08-1.47,3.03-.78,4.43.23.47.61.94,1.04,1.24Zm73.48,95.91c-1.38.9-1.98,2.11-1.98,3.72,0,6.3,0,12.59,0,18.89,0,.22,0,.45.02.67.15,1.53.97,2.66,2.34,3.26,1.25.55,2.57.44,3.68-.4.93-.71,1.56-1.64,1.55-2.92-.03-3.33,0-6.67,0-10h0c0-3.41-.07-6.82.02-10.22.07-2.37-3.22-4.56-5.62-2.99Zm-46.74,31.2c-1.32-2.51-5.05-2.57-6.48-.31-.58.92-.77,1.93-.77,2.97-.02,4.97-.03,9.93.01,14.9,0,.75.21,1.56.55,2.23.97,1.96,3.2,2.46,5.04,1.6,1.42-.66,2.15-1.86,2.15-3.47-.01-2.63,0-5.26,0-7.89h0c0-2.63-.02-5.26.01-7.89,0-.77-.15-1.46-.51-2.13ZM7.63,122.87c-.77-.55-1.63-1.02-2.52-1.35-2.16-.79-5.05,1.03-4.89,3.66.13.53.19,1.08.39,1.58.61,1.57,2.04,2.12,3.46,2.69,1.08.44,2.09.17,2.96-.37,2.55-1.58,2.39-4.92.59-6.22Z"/>
    </clipPath>
    <linearGradient id="linear-gradient-2" x1="47.86" y1="149.85" x2="104.29" y2="18.88" xlink:href="#linear-gradient"/>
  </defs>
  <g id="Layer_1-2" data-name="Layer 1">
    <g>
      <g>
        <path class="cls-2" d="m146.17,90.96c-.03,6.01-.01,12.01-.01,18.02,0,5.97,0,11.94,0,17.91,0,2.62-2.3,4.38-4.82,3.73-1.59-.41-2.76-1.88-2.76-3.59-.02-4.71,0-9.42,0-14.13,0-4.52,0-9.05,0-13.57,0-.11,0-.22,0-.33-.03-1.12-.28-1.27-1.25-.72-2.56,1.47-5.12,2.97-7.67,4.45-.8.46-1.58.95-2.39,1.39-1.04.57-2.11.82-3.31.46-1.42-.43-2.65-1.75-2.71-3.54-.02-.44-.01-.89-.01-1.33,0-9.46.01-18.91-.01-28.37,0-1.55-.12-3.11-.24-4.65-.04-.54-.25-1.08-.4-1.61-.77-2.7-2.03-5.11-3.88-7.26-1.76-2.04-4.01-3.36-6.23-4.74-1.57-.97-3.18-1.88-4.77-2.82-2.67-1.58-5.35-3.16-8.01-4.75-1.59-.95-3.16-1.92-4.75-2.87-2-1.19-4.02-2.34-6.02-3.54-1.75-1.05-3.45-2.17-5.21-3.19-2.28-1.33-2.23-4.84-.24-6.25,1.32-.93,2.9-1.12,4.7-.05,3.18,1.89,6.34,3.81,9.5,5.72,3.99,2.4,7.98,4.82,11.98,7.21,3.14,1.88,6.35,3.65,9.44,5.6,3.32,2.1,6.03,4.85,8.07,8.26,1.05,1.76,1.94,3.58,2.53,5.52.57,1.87,1.06,3.75,1.14,5.75.35,8.19.07,16.38.17,24.57.02,1.84.03,1.88,1.62,1.01,1.88-1.03,3.71-2.14,5.56-3.21,1.51-.87,3.02-1.72,4.53-2.58,1.4-.8,2.72-.54,3.93.38,1.02.78,1.58,1.78,1.58,3.14Zm-69.22,22.21h0c0-4.78-.02-9.57,0-14.35.02-2.59-.5-5.07-1.31-7.5-1.2-3.6-3.18-6.74-5.79-9.48-2.27-2.39-5.03-4.1-7.87-5.71-2.99-1.69-5.97-3.4-8.95-5.12-1.63-.94-3.26-1.9-4.89-2.84-2.7-1.55-5.4-3.08-8.1-4.62-1.63-.94-3.26-1.89-4.9-2.82-1.8-1.02-3.62-2.01-5.41-3.05-2.49-1.45-4.95-2.96-7.44-4.4-4-2.3-8.03-4.57-12.04-6.86-1.09-.62-2.16-1.27-3.23-1.93-1.21-.75-2.53-1.23-3.91-.83-3.07.9-3.55,4.5-1.91,6.23.4.42.87.81,1.37,1.11,1.52.91,3.08,1.76,4.62,2.65,2.34,1.35,4.66,2.72,7,4.07,3.24,1.86,6.49,3.68,9.73,5.54,3.4,1.95,6.77,3.95,10.16,5.9,3.27,1.87,6.56,3.71,9.83,5.57,2.12,1.2,4.24,2.41,6.35,3.63,3.35,1.95,6.68,3.93,10.04,5.86,3.38,1.95,5.78,4.74,7.41,8.28,1.11,2.41,1.58,4.93,1.6,7.53.04,9.6.02,19.21.01,28.81,0,2.61,1.37,3.42,3.16,4.12.39.15.92.15,1.31,0,1.58-.58,3.19-1.57,3.17-4.01-.05-5.26-.02-10.53-.02-15.79Zm34.68-1.23c0-10.5,0-20.99,0-31.49,0-2.94-.34-5.81-1.27-8.62-1.25-3.8-3.27-7.11-6.01-9.99-2.09-2.2-4.62-3.8-7.23-5.3-2.34-1.34-4.67-2.7-7.01-4.04-1.38-.79-2.75-1.6-4.15-2.35-1.11-.6-2.3-.64-3.43-.13-1.39.63-2.18,1.8-2.25,3.32-.06,1.46.54,2.67,1.83,3.45,1.17.71,2.34,1.42,3.52,2.1,2.4,1.39,4.78,2.82,7.21,4.15,3.06,1.67,5.82,3.64,7.83,6.57,1.38,2.02,2.3,4.21,2.86,6.57.35,1.49.33,3.01.33,4.53,0,21.55,0,43.1-.02,64.64,0,1.72.73,2.89,2.12,3.74,1.25.77,3.14.52,4.24-.44,1.03-.9,1.43-2,1.43-3.34-.02-11.13,0-22.25,0-33.38Zm-21.47-30.78c1.18-1.36,1.45-3.44.32-4.79-.26-.31-.44-.68-.67-1.02-1.76-2.55-3.8-4.83-6.43-6.5-2.18-1.39-4.42-2.68-6.66-3.98-4.67-2.7-9.36-5.37-14.04-8.06-.83-.47-.86-.87-.07-1.36,1.35-.84,2.72-1.64,4.09-2.45,2.16-1.28,4.37-2.49,6.47-3.86,1.2-.78,1.88-2,1.7-3.51-.15-1.21-.81-2.14-1.8-2.81-.64-.44-1.33-.8-2-1.19-2.61-1.54-5.22-3.08-7.84-4.61-2.52-1.47-5.06-2.91-7.58-4.38-2.53-1.47-5.04-2.96-7.56-4.44-2.71-1.59-5.42-3.18-8.15-4.75-1.44-.83-2.94-1.57-4.37-2.42-1.78-1.07-4.94.6-5.16,3.12-.15,1.81.67,3.05,2.15,3.94,1.27.76,2.55,1.5,3.82,2.25,1.43.85,2.85,1.71,4.29,2.54,1.89,1.09,3.8,2.13,5.69,3.23,3.13,1.82,6.25,3.66,9.38,5.49,2.17,1.27,4.35,2.52,6.51,3.81.81.48.8.88,0,1.37-1.46.87-2.94,1.71-4.41,2.57-2.04,1.2-4.11,2.36-6.12,3.61-1.17.73-1.83,1.81-1.71,3.29-.17,1.51.71,2.53,1.87,3.25,2.45,1.51,4.98,2.9,7.49,4.33,3.4,1.94,6.81,3.87,10.21,5.83,2.73,1.57,5.44,3.15,8.16,4.73,2.51,1.46,4.55,3.4,6.08,5.88.47.77,1.07,1.43,1.92,1.78,1.49.63,3.5.2,4.42-.87Zm-47.74,48.56c0-3.48-.02-6.97,0-10.45.03-3.16-.76-6.15-1.89-9.06-.98-2.54-2.41-4.83-4.19-6.9-2.22-2.58-4.88-4.62-7.85-6.28-2.68-1.5-5.32-3.06-7.97-4.59-1.67-.96-3.32-1.95-4.99-2.91-2.11-1.21-4.23-2.42-6.36-3.6-1.29-.72-2.57-1.48-3.93-2.05-1.41-.59-3.14.08-4.08,1.23-1.45,1.77-.99,4.67,1.14,5.85,2,1.11,3.97,2.28,5.96,3.42,3.11,1.79,6.22,3.57,9.33,5.36,2.21,1.27,4.44,2.52,6.64,3.8,1.76,1.02,3.51,2.05,4.97,3.5,2.51,2.48,4.16,5.42,5.04,8.84.39,1.5.42,3,.42,4.52,0,6.86,0,13.72,0,20.57,0,.37-.02.74,0,1.11.12,1.72,1.25,3.03,2.54,3.47,2.7.92,5.18-.85,5.19-3.71.02-4.04,0-8.08,0-12.12h0Zm17.09-22.77c-.29-1.82-.74-3.62-1.23-5.4-.4-1.45-1.04-2.82-1.81-4.14-.9-1.53-1.86-3.02-3.02-4.36-2.98-3.47-6.88-5.67-10.84-7.77-.62-.33-1.43-.46-2.14-.41-1.57.11-3.03,1.48-3.32,3-.3,1.6.23,3.03,1.69,4.05.6.42,1.29.71,1.91,1.11,1.68,1.07,3.5,1.99,4.99,3.28,4.17,3.64,6.29,8.29,6.27,13.87-.01,6.63,0,13.27,0,19.9h0c0,6.93,0,13.86,0,20.79,0,.41-.01.82.01,1.22.13,1.88,1.41,3.33,3.18,3.62,1.83.3,3.58-.68,4.22-2.49.24-.68.32-1.45.32-2.17.02-13.23.03-26.46.01-39.7,0-1.48-.03-2.97-.26-4.42Zm34.77-10.37c0-.37.01-.74-.03-1.11-.22-1.87-1.39-3.03-3.41-3.39-1.4-.25-2.99.71-3.79,2.15-.39.71-.35,1.42-.35,2.15,0,9.56,0,19.12,0,28.69h.02c0,3.93,0,7.86,0,11.79,0,5.86,0,11.71.02,17.57,0,2.05,1.63,3.39,3.24,3.69,1.79.33,3.59-.77,4.16-2.55.2-.62.31-1.3.31-1.95-.03-5.85-.12-11.7-.13-17.56-.03-13.16-.02-26.31-.03-39.47Zm52.01-30.16c-.02-2.89-.03-5.78-.13-8.67-.08-2.23-.63-4.39-1.33-6.5-.82-2.47-2.06-4.74-3.61-6.84-1.83-2.46-3.96-4.62-6.58-6.21-4.2-2.55-8.46-5.01-12.74-7.45-.81-.46-1.79-.82-2.71-.85-1.7-.06-3.22,1.25-3.65,2.89-.35,1.36.08,3.27,1.7,4.25,1.04.63,2.1,1.25,3.16,1.86,2.37,1.37,4.74,2.73,7.1,4.11,1.95,1.13,3.91,2.25,5.53,3.86,1.3,1.29,2.41,2.72,3.27,4.32,1.62,3.03,2.27,6.3,2.24,9.72-.02,2.15,0,4.3,0,6.45h0c0,2.63-.02,5.26,0,7.89.02,1.66,1.05,2.91,2.69,3.41,1.58.47,3.2-.07,4.18-1.32.76-.98.88-2.1.88-3.25.01-2.56.02-5.12,0-7.67ZM66.79,7.88c.6.42,1.28.74,1.92,1.11,2.2,1.28,4.4,2.58,6.61,3.86,2.82,1.63,5.65,3.23,8.47,4.86,3.17,1.83,6.32,3.69,9.48,5.53,2.4,1.39,4.8,2.77,7.2,4.16,1.38.79,2.74,1.62,4.15,2.36.61.32,1.35.67,1.98.59,2-.25,3.91-1.58,3.73-4.07.13-1.66-.78-2.74-2.16-3.53-.9-.51-1.8-1-2.69-1.52-2.08-1.2-4.15-2.42-6.23-3.63-2.27-1.32-4.55-2.64-6.82-3.96-2.68-1.56-5.36-3.14-8.05-4.69-2.34-1.35-4.69-2.67-7.02-4.03-2.37-1.37-4.71-2.79-7.08-4.15-1.68-.96-3.87-.64-4.97.78-1.32,1.71-1.42,3.13-.18,4.89.41.58,1.06,1.02,1.66,1.44ZM25.09,125.52c0-1.64-.19-3.24-.7-4.8-.53-1.63-1.25-3.18-2.18-4.6-1.82-2.77-4.29-4.9-7.04-6.67-2.89-1.86-5.86-3.6-8.83-5.33-1.34-.78-2.75-.74-4.1.06-2.38,1.43-2.27,4.7-.2,6.29.61.47,1.31.84,1.97,1.24,2.27,1.39,4.54,2.77,6.8,4.18,1.51.95,2.92,2.02,4.14,3.34,1.01,1.09,1.7,2.36,2.06,3.75.39,1.54.57,3.12.51,4.73-.05,1.33.02,2.67,0,4-.01.69.13,1.3.45,1.91.77,1.45,2.44,2.3,4.09,2.07,1.36-.19,2.99-1.55,3.07-3.09.03-.59.13-1.17.2-1.76-.04,0-.07,0-.11,0-.04-1.78-.1-3.55-.11-5.33ZM14.44,38.19c1.59.85,3.14,1.77,4.7,2.68,1.85,1.08,3.67,2.2,5.53,3.25,2.6,1.48,5.22,2.9,7.82,4.38,1.73.99,3.41,2.07,5.15,3.03,3.17,1.75,6.27-.73,6.03-3.17-.15-.56-.25-1.13-.45-1.67-.45-1.21-1.59-1.7-2.59-2.3-1.14-.68-2.32-1.29-3.47-1.96-3.1-1.79-6.19-3.61-9.3-5.4-2.75-1.58-5.51-3.15-8.27-4.71-.64-.36-1.31-.7-2-.96-1.86-.68-3.93.21-4.73,2.01-.72,1.63-.15,3.89,1.57,4.81ZM2.67,70.93c.34.22.67.47,1.02.67,3.58,2.07,7.18,4.12,10.76,6.19,2.85,1.65,5.68,3.32,8.53,4.97,1.15.66,2.3,1.36,3.51,1.89,1.84.81,4.05-.05,4.87-1.88.88-1.96.13-4-1.49-4.94-1.28-.74-2.55-1.5-3.83-2.24-3.01-1.74-6.03-3.46-9.03-5.2-3.29-1.91-6.56-3.86-9.86-5.75-.7-.4-1.47-.72-2.22-.6-1.7,0-3.19.83-3.62,2.07-.52,1.49-.55,3.6,1.36,4.82ZM49.72,16.75c1.15.81,2.34,1.56,3.54,2.29,2.72,1.63,5.47,3.23,8.2,4.84,1.91,1.13,3.81,2.26,5.72,3.39.61.36,1.25.66,1.93.56,1.55.09,2.63-.59,3.36-1.83,1.05-1.77.62-4.14-1.45-5.39-1.33-.8-2.64-1.62-3.98-2.41-3.81-2.26-7.63-4.51-11.45-6.77-.6-.36-1.19-.75-1.82-1.06-1.46-.7-3.23-.39-4.32.7-1.08,1.08-1.47,3.03-.78,4.43.23.47.61.94,1.04,1.24Zm73.48,95.91c-1.38.9-1.98,2.11-1.98,3.72,0,6.3,0,12.59,0,18.89,0,.22,0,.45.02.67.15,1.53.97,2.66,2.34,3.26,1.25.55,2.57.44,3.68-.4.93-.71,1.56-1.64,1.55-2.92-.03-3.33,0-6.67,0-10h0c0-3.41-.07-6.82.02-10.22.07-2.37-3.22-4.56-5.62-2.99Zm-46.74,31.2c-1.32-2.51-5.05-2.57-6.48-.31-.58.92-.77,1.93-.77,2.97-.02,4.97-.03,9.93.01,14.9,0,.75.21,1.56.55,2.23.97,1.96,3.2,2.46,5.04,1.6,1.42-.66,2.15-1.86,2.15-3.47-.01-2.63,0-5.26,0-7.89h0c0-2.63-.02-5.26.01-7.89,0-.77-.15-1.46-.51-2.13ZM7.63,122.87c-.77-.55-1.63-1.02-2.52-1.35-2.16-.79-5.05,1.03-4.89,3.66.13.53.19,1.08.39,1.58.61,1.57,2.04,2.12,3.46,2.69,1.08.44,2.09.17,2.96-.37,2.55-1.58,2.39-4.92.59-6.22Z"/>
        <g class="cls-6">
          <rect class="cls-4" x="-23.89" y="-12.25" width="201.69" height="189.12"/>
        </g>
        <path class="cls-3" d="m146.17,90.96c-.03,6.01-.01,12.01-.01,18.02,0,5.97,0,11.94,0,17.91,0,2.62-2.3,4.38-4.82,3.73-1.59-.41-2.76-1.88-2.76-3.59-.02-4.71,0-9.42,0-14.13,0-4.52,0-9.05,0-13.57,0-.11,0-.22,0-.33-.03-1.12-.28-1.27-1.25-.72-2.56,1.47-5.12,2.97-7.67,4.45-.8.46-1.58.95-2.39,1.39-1.04.57-2.11.82-3.31.46-1.42-.43-2.65-1.75-2.71-3.54-.02-.44-.01-.89-.01-1.33,0-9.46.01-18.91-.01-28.37,0-1.55-.12-3.11-.24-4.65-.04-.54-.25-1.08-.4-1.61-.77-2.7-2.03-5.11-3.88-7.26-1.76-2.04-4.01-3.36-6.23-4.74-1.57-.97-3.18-1.88-4.77-2.82-2.67-1.58-5.35-3.16-8.01-4.75-1.59-.95-3.16-1.92-4.75-2.87-2-1.19-4.02-2.34-6.02-3.54-1.75-1.05-3.45-2.17-5.21-3.19-2.28-1.33-2.23-4.84-.24-6.25,1.32-.93,2.9-1.12,4.7-.05,3.18,1.89,6.34,3.81,9.5,5.72,3.99,2.4,7.98,4.82,11.98,7.21,3.14,1.88,6.35,3.65,9.44,5.6,3.32,2.1,6.03,4.85,8.07,8.26,1.05,1.76,1.94,3.58,2.53,5.52.57,1.87,1.06,3.75,1.14,5.75.35,8.19.07,16.38.17,24.57.02,1.84.03,1.88,1.62,1.01,1.88-1.03,3.71-2.14,5.56-3.21,1.51-.87,3.02-1.72,4.53-2.58,1.4-.8,2.72-.54,3.93.38,1.02.78,1.58,1.78,1.58,3.14Zm-69.22,22.21h0c0-4.78-.02-9.57,0-14.35.02-2.59-.5-5.07-1.31-7.5-1.2-3.6-3.18-6.74-5.79-9.48-2.27-2.39-5.03-4.1-7.87-5.71-2.99-1.69-5.97-3.4-8.95-5.12-1.63-.94-3.26-1.9-4.89-2.84-2.7-1.55-5.4-3.08-8.1-4.62-1.63-.94-3.26-1.89-4.9-2.82-1.8-1.02-3.62-2.01-5.41-3.05-2.49-1.45-4.95-2.96-7.44-4.4-4-2.3-8.03-4.57-12.04-6.86-1.09-.62-2.16-1.27-3.23-1.93-1.21-.75-2.53-1.23-3.91-.83-3.07.9-3.55,4.5-1.91,6.23.4.42.87.81,1.37,1.11,1.52.91,3.08,1.76,4.62,2.65,2.34,1.35,4.66,2.72,7,4.07,3.24,1.86,6.49,3.68,9.73,5.54,3.4,1.95,6.77,3.95,10.16,5.9,3.27,1.87,6.56,3.71,9.83,5.57,2.12,1.2,4.24,2.41,6.35,3.63,3.35,1.95,6.68,3.93,10.04,5.86,3.38,1.95,5.78,4.74,7.41,8.28,1.11,2.41,1.58,4.93,1.6,7.53.04,9.6.02,19.21.01,28.81,0,2.61,1.37,3.42,3.16,4.12.39.15.92.15,1.31,0,1.58-.58,3.19-1.57,3.17-4.01-.05-5.26-.02-10.53-.02-15.79Zm34.68-1.23c0-10.5,0-20.99,0-31.49,0-2.94-.34-5.81-1.27-8.62-1.25-3.8-3.27-7.11-6.01-9.99-2.09-2.2-4.62-3.8-7.23-5.3-2.34-1.34-4.67-2.7-7.01-4.04-1.38-.79-2.75-1.6-4.15-2.35-1.11-.6-2.3-.64-3.43-.13-1.39.63-2.18,1.8-2.25,3.32-.06,1.46.54,2.67,1.83,3.45,1.17.71,2.34,1.42,3.52,2.1,2.4,1.39,4.78,2.82,7.21,4.15,3.06,1.67,5.82,3.64,7.83,6.57,1.38,2.02,2.3,4.21,2.86,6.57.35,1.49.33,3.01.33,4.53,0,21.55,0,43.1-.02,64.64,0,1.72.73,2.89,2.12,3.74,1.25.77,3.14.52,4.24-.44,1.03-.9,1.43-2,1.43-3.34-.02-11.13,0-22.25,0-33.38Zm-21.47-30.78c1.18-1.36,1.45-3.44.32-4.79-.26-.31-.44-.68-.67-1.02-1.76-2.55-3.8-4.83-6.43-6.5-2.18-1.39-4.42-2.68-6.66-3.98-4.67-2.7-9.36-5.37-14.04-8.06-.83-.47-.86-.87-.07-1.36,1.35-.84,2.72-1.64,4.09-2.45,2.16-1.28,4.37-2.49,6.47-3.86,1.2-.78,1.88-2,1.7-3.51-.15-1.21-.81-2.14-1.8-2.81-.64-.44-1.33-.8-2-1.19-2.61-1.54-5.22-3.08-7.84-4.61-2.52-1.47-5.06-2.91-7.58-4.38-2.53-1.47-5.04-2.96-7.56-4.44-2.71-1.59-5.42-3.18-8.15-4.75-1.44-.83-2.94-1.57-4.37-2.42-1.78-1.07-4.94.6-5.16,3.12-.15,1.81.67,3.05,2.15,3.94,1.27.76,2.55,1.5,3.82,2.25,1.43.85,2.85,1.71,4.29,2.54,1.89,1.09,3.8,2.13,5.69,3.23,3.13,1.82,6.25,3.66,9.38,5.49,2.17,1.27,4.35,2.52,6.51,3.81.81.48.8.88,0,1.37-1.46.87-2.94,1.71-4.41,2.57-2.04,1.2-4.11,2.36-6.12,3.61-1.17.73-1.83,1.81-1.71,3.29-.17,1.51.71,2.53,1.87,3.25,2.45,1.51,4.98,2.9,7.49,4.33,3.4,1.94,6.81,3.87,10.21,5.83,2.73,1.57,5.44,3.15,8.16,4.73,2.51,1.46,4.55,3.4,6.08,5.88.47.77,1.07,1.43,1.92,1.78,1.49.63,3.5.2,4.42-.87Zm-47.74,48.56c0-3.48-.02-6.97,0-10.45.03-3.16-.76-6.15-1.89-9.06-.98-2.54-2.41-4.83-4.19-6.9-2.22-2.58-4.88-4.62-7.85-6.28-2.68-1.5-5.32-3.06-7.97-4.59-1.67-.96-3.32-1.95-4.99-2.91-2.11-1.21-4.23-2.42-6.36-3.6-1.29-.72-2.57-1.48-3.93-2.05-1.41-.59-3.14.08-4.08,1.23-1.45,1.77-.99,4.67,1.14,5.85,2,1.11,3.97,2.28,5.96,3.42,3.11,1.79,6.22,3.57,9.33,5.36,2.21,1.27,4.44,2.52,6.64,3.8,1.76,1.02,3.51,2.05,4.97,3.5,2.51,2.48,4.16,5.42,5.04,8.84.39,1.5.42,3,.42,4.52,0,6.86,0,13.72,0,20.57,0,.37-.02.74,0,1.11.12,1.72,1.25,3.03,2.54,3.47,2.7.92,5.18-.85,5.19-3.71.02-4.04,0-8.08,0-12.12h0Zm17.09-22.77c-.29-1.82-.74-3.62-1.23-5.4-.4-1.45-1.04-2.82-1.81-4.14-.9-1.53-1.86-3.02-3.02-4.36-2.98-3.47-6.88-5.67-10.84-7.77-.62-.33-1.43-.46-2.14-.41-1.57.11-3.03,1.48-3.32,3-.3,1.6.23,3.03,1.69,4.05.6.42,1.29.71,1.91,1.11,1.68,1.07,3.5,1.99,4.99,3.28,4.17,3.64,6.29,8.29,6.27,13.87-.01,6.63,0,13.27,0,19.9h0c0,6.93,0,13.86,0,20.79,0,.41-.01.82.01,1.22.13,1.88,1.41,3.33,3.18,3.62,1.83.3,3.58-.68,4.22-2.49.24-.68.32-1.45.32-2.17.02-13.23.03-26.46.01-39.7,0-1.48-.03-2.97-.26-4.42Zm34.77-10.37c0-.37.01-.74-.03-1.11-.22-1.87-1.39-3.03-3.41-3.39-1.4-.25-2.99.71-3.79,2.15-.39.71-.35,1.42-.35,2.15,0,9.56,0,19.12,0,28.69h.02c0,3.93,0,7.86,0,11.79,0,5.86,0,11.71.02,17.57,0,2.05,1.63,3.39,3.24,3.69,1.79.33,3.59-.77,4.16-2.55.2-.62.31-1.3.31-1.95-.03-5.85-.12-11.7-.13-17.56-.03-13.16-.02-26.31-.03-39.47Zm52.01-30.16c-.02-2.89-.03-5.78-.13-8.67-.08-2.23-.63-4.39-1.33-6.5-.82-2.47-2.06-4.74-3.61-6.84-1.83-2.46-3.96-4.62-6.58-6.21-4.2-2.55-8.46-5.01-12.74-7.45-.81-.46-1.79-.82-2.71-.85-1.7-.06-3.22,1.25-3.65,2.89-.35,1.36.08,3.27,1.7,4.25,1.04.63,2.1,1.25,3.16,1.86,2.37,1.37,4.74,2.73,7.1,4.11,1.95,1.13,3.91,2.25,5.53,3.86,1.3,1.29,2.41,2.72,3.27,4.32,1.62,3.03,2.27,6.3,2.24,9.72-.02,2.15,0,4.3,0,6.45h0c0,2.63-.02,5.26,0,7.89.02,1.66,1.05,2.91,2.69,3.41,1.58.47,3.2-.07,4.18-1.32.76-.98.88-2.1.88-3.25.01-2.56.02-5.12,0-7.67ZM66.79,7.88c.6.42,1.28.74,1.92,1.11,2.2,1.28,4.4,2.58,6.61,3.86,2.82,1.63,5.65,3.23,8.47,4.86,3.17,1.83,6.32,3.69,9.48,5.53,2.4,1.39,4.8,2.77,7.2,4.16,1.38.79,2.74,1.62,4.15,2.36.61.32,1.35.67,1.98.59,2-.25,3.91-1.58,3.73-4.07.13-1.66-.78-2.74-2.16-3.53-.9-.51-1.8-1-2.69-1.52-2.08-1.2-4.15-2.42-6.23-3.63-2.27-1.32-4.55-2.64-6.82-3.96-2.68-1.56-5.36-3.14-8.05-4.69-2.34-1.35-4.69-2.67-7.02-4.03-2.37-1.37-4.71-2.79-7.08-4.15-1.68-.96-3.87-.64-4.97.78-1.32,1.71-1.42,3.13-.18,4.89.41.58,1.06,1.02,1.66,1.44ZM25.09,125.52c0-1.64-.19-3.24-.7-4.8-.53-1.63-1.25-3.18-2.18-4.6-1.82-2.77-4.29-4.9-7.04-6.67-2.89-1.86-5.86-3.6-8.83-5.33-1.34-.78-2.75-.74-4.1.06-2.38,1.43-2.27,4.7-.2,6.29.61.47,1.31.84,1.97,1.24,2.27,1.39,4.54,2.77,6.8,4.18,1.51.95,2.92,2.02,4.14,3.34,1.01,1.09,1.7,2.36,2.06,3.75.39,1.54.57,3.12.51,4.73-.05,1.33.02,2.67,0,4-.01.69.13,1.3.45,1.91.77,1.45,2.44,2.3,4.09,2.07,1.36-.19,2.99-1.55,3.07-3.09.03-.59.13-1.17.2-1.76-.04,0-.07,0-.11,0-.04-1.78-.1-3.55-.11-5.33ZM14.44,38.19c1.59.85,3.14,1.77,4.7,2.68,1.85,1.08,3.67,2.2,5.53,3.25,2.6,1.48,5.22,2.9,7.82,4.38,1.73.99,3.41,2.07,5.15,3.03,3.17,1.75,6.27-.73,6.03-3.17-.15-.56-.25-1.13-.45-1.67-.45-1.21-1.59-1.7-2.59-2.3-1.14-.68-2.32-1.29-3.47-1.96-3.1-1.79-6.19-3.61-9.3-5.4-2.75-1.58-5.51-3.15-8.27-4.71-.64-.36-1.31-.7-2-.96-1.86-.68-3.93.21-4.73,2.01-.72,1.63-.15,3.89,1.57,4.81ZM2.67,70.93c.34.22.67.47,1.02.67,3.58,2.07,7.18,4.12,10.76,6.19,2.85,1.65,5.68,3.32,8.53,4.97,1.15.66,2.3,1.36,3.51,1.89,1.84.81,4.05-.05,4.87-1.88.88-1.96.13-4-1.49-4.94-1.28-.74-2.55-1.5-3.83-2.24-3.01-1.74-6.03-3.46-9.03-5.2-3.29-1.91-6.56-3.86-9.86-5.75-.7-.4-1.47-.72-2.22-.6-1.7,0-3.19.83-3.62,2.07-.52,1.49-.55,3.6,1.36,4.82ZM49.72,16.75c1.15.81,2.34,1.56,3.54,2.29,2.72,1.63,5.47,3.23,8.2,4.84,1.91,1.13,3.81,2.26,5.72,3.39.61.36,1.25.66,1.93.56,1.55.09,2.63-.59,3.36-1.83,1.05-1.77.62-4.14-1.45-5.39-1.33-.8-2.64-1.62-3.98-2.41-3.81-2.26-7.63-4.51-11.45-6.77-.6-.36-1.19-.75-1.82-1.06-1.46-.7-3.23-.39-4.32.7-1.08,1.08-1.47,3.03-.78,4.43.23.47.61.94,1.04,1.24Zm73.48,95.91c-1.38.9-1.98,2.11-1.98,3.72,0,6.3,0,12.59,0,18.89,0,.22,0,.45.02.67.15,1.53.97,2.66,2.34,3.26,1.25.55,2.57.44,3.68-.4.93-.71,1.56-1.64,1.55-2.92-.03-3.33,0-6.67,0-10h0c0-3.41-.07-6.82.02-10.22.07-2.37-3.22-4.56-5.62-2.99Zm-46.74,31.2c-1.32-2.51-5.05-2.57-6.48-.31-.58.92-.77,1.93-.77,2.97-.02,4.97-.03,9.93.01,14.9,0,.75.21,1.56.55,2.23.97,1.96,3.2,2.46,5.04,1.6,1.42-.66,2.15-1.86,2.15-3.47-.01-2.63,0-5.26,0-7.89h0c0-2.63-.02-5.26.01-7.89,0-.77-.15-1.46-.51-2.13ZM7.63,122.87c-.77-.55-1.63-1.02-2.52-1.35-2.16-.79-5.05,1.03-4.89,3.66.13.53.19,1.08.39,1.58.61,1.57,2.04,2.12,3.46,2.69,1.08.44,2.09.17,2.96-.37,2.55-1.58,2.39-4.92.59-6.22Z"/>
      </g>
      <path class="cls-5" d="m191.39,62.07c0-2.22.7-3.91,2.1-5.05,1.4-1.14,3.37-1.71,5.91-1.71,1.27,0,2.54.13,3.81.38,1.27.26,2.45.6,3.53,1.05v12.87h10.96c5.27,0,7.91,2.29,7.91,6.86,0,1.27-.19,2.59-.57,3.95-.38,1.37-.83,2.53-1.33,3.48h-16.96v14.96c0,2.16.6,3.83,1.81,5,1.21,1.18,2.95,1.76,5.24,1.76,1.4,0,2.86-.21,4.38-.62,1.53-.41,2.8-.94,3.81-1.57l6,10.48c-1.14,1.02-2.69,1.95-4.62,2.81-1.94.86-4.05,1.54-6.34,2.05-2.29.51-4.57.76-6.86.76-5.59,0-10.12-1.56-13.58-4.67-3.46-3.11-5.19-7.34-5.19-12.68v-40.12Zm64.04,57.47c-5.08,0-9.55-1.08-13.39-3.24-3.85-2.16-6.85-5.16-9.01-9.01-2.16-3.84-3.24-8.31-3.24-13.39s1.13-9.45,3.38-13.29c2.25-3.84,5.35-6.86,9.29-9.05,3.94-2.19,8.42-3.29,13.44-3.29,4.19,0,7.94.73,11.25,2.19,3.3,1.46,5.91,3.46,7.81,6,1.91,2.54,2.86,5.43,2.86,8.67,0,5.27-2.08,9.12-6.24,11.53-4.16,2.42-10.88,3.62-20.16,3.62-1.21,0-2.22-.01-3.05-.05-.83-.03-1.59-.08-2.29-.14.38,1.97,1.72,3.56,4,4.76,2.29,1.21,5.18,1.81,8.67,1.81,1.27,0,2.73-.14,4.38-.43,1.65-.29,3.22-.67,4.72-1.14,1.49-.48,2.59-.94,3.29-1.38l5.34,10.67c-1.46.95-3.38,1.83-5.77,2.62-2.38.8-4.91,1.41-7.58,1.86s-5.24.67-7.72.67Zm.38-39.45c-2.92,0-5.38.97-7.39,2.91-2,1.94-3,4.4-3,7.39.51.06,1.03.1,1.57.1h1.48c5.21,0,8.94-.46,11.2-1.38,2.25-.92,3.38-2.27,3.38-4.05,0-1.46-.67-2.65-2-3.57-1.33-.92-3.08-1.38-5.24-1.38Zm29.45,8.67c0-4.45,1.1-8.2,3.29-11.25s5.13-5.35,8.82-6.91c3.68-1.56,7.75-2.34,12.2-2.34s8.5.78,12.15,2.34c3.65,1.56,6.58,3.86,8.77,6.91,2.19,3.05,3.29,6.8,3.29,11.25v29.45h-15.34v-25.92c0-6.61-2.95-9.91-8.86-9.91s-8.96,3.3-8.96,9.91v25.92h-15.34v-29.45Zm57.56-3.91c0-5.4,2-9.51,6-12.34,4-2.83,9.94-4.24,17.82-4.24,6.23,0,11.21.81,14.96,2.43,3.75,1.62,5.62,3.73,5.62,6.34,0,1.21-.43,2.48-1.29,3.81-.86,1.33-1.92,2.32-3.19,2.95-.7-.76-2-1.48-3.91-2.14-1.91-.67-4.04-1.21-6.39-1.62-2.35-.41-4.57-.62-6.67-.62-5.08,0-7.62,1.21-7.62,3.62,0,1.02.48,1.78,1.43,2.29.95.51,2.54.92,4.77,1.24l8.58,1.14c11.12,1.52,16.68,6.48,16.68,14.87,0,5.28-2.03,9.42-6.1,12.44-4.07,3.02-9.69,4.53-16.87,4.53-3.24,0-6.51-.28-9.82-.86-3.3-.57-6.32-1.33-9.05-2.29-2.73-.95-4.86-2-6.38-3.14l5.43-9.91c1.84,1.33,4.51,2.45,8.01,3.33,3.49.89,7.08,1.34,10.77,1.34,5.27,0,7.91-1.11,7.91-3.34,0-1.02-.52-1.81-1.57-2.38-1.05-.57-2.81-1.02-5.29-1.33l-8.58-1.14c-10.17-1.33-15.25-6.32-15.25-14.96Zm79.48,34.69c-5.02,0-9.56-1.14-13.63-3.43-4.07-2.29-7.29-5.37-9.67-9.24-2.38-3.87-3.57-8.2-3.57-12.96s1.19-9.16,3.57-13.01c2.38-3.84,5.61-6.91,9.67-9.2,4.07-2.29,8.61-3.43,13.63-3.43s9.64,1.14,13.68,3.43c4.03,2.29,7.24,5.35,9.63,9.2,2.38,3.85,3.57,8.18,3.57,13.01s-1.19,9.09-3.57,12.96c-2.38,3.87-5.59,6.96-9.63,9.24-4.04,2.29-8.59,3.43-13.68,3.43Zm8.01-34.17c-2.1-2.25-4.77-3.38-8.01-3.38s-5.91,1.13-8.01,3.38c-2.1,2.26-3.15,5.1-3.15,8.53s1.05,6.28,3.15,8.53c2.1,2.26,4.77,3.38,8.01,3.38s5.91-1.13,8.01-3.38c2.1-2.25,3.14-5.1,3.14-8.53s-1.05-6.27-3.14-8.53Zm27.45,2.34c0-6.16,1.86-10.94,5.58-14.34,3.72-3.4,8.91-5.1,15.58-5.1,4.7,0,8.43.78,11.2,2.34,2.76,1.56,4.15,3.57,4.15,6.05,0,1.27-.35,2.61-1.05,4-.7,1.4-1.52,2.54-2.48,3.43-1.21-.63-2.64-1.14-4.29-1.53-1.65-.38-3.21-.57-4.67-.57-5.78,0-8.67,3.02-8.67,9.05v27.16h-15.34v-30.5Zm40.79-.67c0-3.87.9-7.21,2.72-10.01,1.81-2.79,4.35-4.96,7.62-6.48,3.27-1.52,7.07-2.29,11.39-2.29,3.94,0,7.39.64,10.34,1.91,2.95,1.27,5.32,3.05,7.1,5.34,1.84-2.35,4.21-4.15,7.1-5.38,2.89-1.24,6.27-1.86,10.15-1.86,4.32,0,8.1.76,11.34,2.29,3.24,1.53,5.77,3.69,7.58,6.48,1.81,2.8,2.72,6.13,2.72,10.01v31.16h-15.34v-26.78c0-6.04-2.54-9.05-7.62-9.05-2.8,0-4.89.89-6.29,2.67-1.4,1.78-2.1,4.35-2.1,7.72v25.44h-15.34v-25.44c0-6.92-2.76-10.39-8.29-10.39-5.15,0-7.72,3.02-7.72,9.05v26.78h-15.34v-31.16Zm90.63-24.45c-1.59-1.68-2.38-3.7-2.38-6.05s.79-4.45,2.38-6.1c1.59-1.65,3.59-2.48,6-2.48s4.51.83,6.1,2.48c1.59,1.65,2.38,3.68,2.38,6.1s-.8,4.37-2.38,6.05c-1.59,1.68-3.62,2.53-6.1,2.53s-4.42-.84-6-2.53Zm13.72,55.61h-15.34v-41.84c0-2.22.7-3.91,2.1-5.05,1.4-1.14,3.37-1.71,5.91-1.71,1.27,0,2.54.13,3.81.38,1.27.25,2.45.6,3.53,1.05v47.17Zm10.96-29.45c0-4.45,1.1-8.2,3.29-11.25s5.13-5.35,8.82-6.91c3.68-1.56,7.75-2.34,12.2-2.34s8.5.78,12.15,2.34c3.65,1.56,6.58,3.86,8.77,6.91,2.19,3.05,3.29,6.8,3.29,11.25v29.45h-15.34v-25.92c0-6.61-2.95-9.91-8.86-9.91s-8.96,3.3-8.96,9.91v25.92h-15.34v-29.45Zm109.88,3.43c0,5.72-1.06,10.63-3.19,14.72-2.13,4.1-5.15,7.23-9.05,9.39-3.91,2.16-8.53,3.24-13.87,3.24s-10.1-1.09-14.1-3.29c-4-2.19-7.1-5.23-9.29-9.1-2.19-3.87-3.29-8.29-3.29-13.25s1.05-9.36,3.14-13.2c2.1-3.84,4.92-6.88,8.48-9.1,3.56-2.22,7.53-3.34,11.91-3.34,2.86,0,5.49.46,7.91,1.38,2.41.92,4.41,2.21,6,3.86v-24.11c1.08-.44,2.27-.79,3.57-1.05,1.3-.25,2.56-.38,3.76-.38,2.54,0,4.51.57,5.91,1.71s2.1,2.83,2.1,5.05v37.45Zm-34.02-6.81c-2.03,2.13-3.05,4.94-3.05,8.43s1.02,6.31,3.05,8.43c2.03,2.13,4.67,3.19,7.91,3.19s5.88-1.06,7.91-3.19c2.03-2.13,3.05-4.94,3.05-8.43s-1.02-6.3-3.05-8.43c-2.03-2.13-4.67-3.19-7.91-3.19s-5.88,1.06-7.91,3.19Z"/>
    </g>
  </g>
</svg>