<?xml version="1.0" encoding="UTF-8"?>
<svg id="Layer_2" data-name="Layer 2" xmlns="http://www.w3.org/2000/svg" xmlns:xlink="http://www.w3.org/1999/xlink" viewBox="0 0 770.09 680.7">
  <defs>
    <style>
      .cls-1, .cls-2 {
        fill: url(#linear-gradient);
      }

      .cls-1, .cls-3 {
        stroke: #fff;
        stroke-width: .45px;
      }

      .cls-1, .cls-3, .cls-4 {
        stroke-miterlimit: 10;
      }

      .cls-5 {
        fill: url(#linear-gradient-3);
        stroke-width: 0px;
      }

      .cls-6 {
        clip-path: url(#clippath);
      }

      .cls-3 {
        fill: none;
      }

      .cls-4 {
        fill: url(#linear-gradient-2);
        stroke: #111;
      }
    </style>
    <linearGradient id="linear-gradient" x1="160.75" y1="291.71" x2="607.68" y2="291.71" gradientUnits="userSpaceOnUse">
      <stop offset="0" stop-color="#4a3b9c"/>
      <stop offset=".07" stop-color="#4943a6"/>
      <stop offset=".19" stop-color="#4859c1"/>
      <stop offset=".35" stop-color="#457ced"/>
      <stop offset=".4" stop-color="#458afe"/>
      <stop offset=".48" stop-color="#438bfd"/>
      <stop offset=".51" stop-color="#3c8efd"/>
      <stop offset=".53" stop-color="#3095fc"/>
      <stop offset=".54" stop-color="#239dfc"/>
      <stop offset=".66" stop-color="#16a5d8"/>
      <stop offset=".68" stop-color="#29add5"/>
      <stop offset=".71" stop-color="#3fb7d3"/>
      <stop offset=".74" stop-color="#50bed2"/>
      <stop offset=".78" stop-color="#5cc4d0"/>
      <stop offset=".84" stop-color="#63c7d0"/>
      <stop offset="1" stop-color="#65c8d0"/>
    </linearGradient>
    <clipPath id="clippath">
      <path class="cls-1" d="m607.28,316.25c-.1,18.38-.04,36.76-.05,55.14,0,18.27.02,36.53,0,54.8-.01,8.01-7.03,13.4-14.75,11.42-4.88-1.25-8.44-5.76-8.46-10.98-.05-14.41-.03-28.82-.03-43.22,0-13.84,0-27.68,0-41.52,0-.34,0-.68,0-1.02-.1-3.42-.86-3.89-3.81-2.19-7.84,4.51-15.65,9.07-23.47,13.62-2.44,1.42-4.85,2.9-7.33,4.25-3.18,1.73-6.45,2.51-10.13,1.4-4.34-1.32-8.11-5.36-8.31-10.84-.05-1.36-.03-2.72-.03-4.08,0-28.93.03-57.86-.03-86.79-.01-4.75-.36-9.5-.73-14.24-.13-1.67-.75-3.3-1.22-4.93-2.35-8.26-6.21-15.64-11.89-22.21-5.38-6.23-12.26-10.28-19.07-14.51-4.8-2.98-9.73-5.76-14.6-8.64-8.17-4.84-16.35-9.67-24.51-14.53-4.86-2.9-9.66-5.89-14.52-8.77-6.12-3.64-12.31-7.17-18.41-10.83-5.34-3.2-10.55-6.63-15.93-9.77-6.99-4.08-6.82-14.8-.73-19.11,4.03-2.85,8.87-3.44,14.37-.16,9.72,5.78,19.39,11.65,29.07,17.49,12.21,7.36,24.4,14.75,36.64,22.06,9.61,5.74,19.42,11.16,28.87,17.14,10.17,6.44,18.44,14.83,24.68,25.27,3.22,5.38,5.94,10.94,7.73,16.88,1.73,5.71,3.23,11.48,3.49,17.58,1.06,25.06.23,50.12.51,75.18.06,5.62.09,5.75,4.94,3.1,5.75-3.14,11.34-6.56,17.02-9.83,4.61-2.65,9.24-5.26,13.86-7.9,4.28-2.44,8.31-1.66,12.02,1.16,3.13,2.37,4.85,5.45,4.83,9.61Zm-211.79,67.95h.01c0-14.63-.07-29.27.03-43.9.05-7.92-1.53-15.51-4.02-22.95-3.68-11.02-9.73-20.61-17.7-29.02-6.94-7.32-15.39-12.56-24.08-17.47-9.15-5.18-18.26-10.42-27.38-15.65-5-2.87-9.96-5.81-14.96-8.68-8.25-4.73-16.52-9.42-24.77-14.14-5-2.86-9.97-5.78-14.98-8.62-5.51-3.13-11.08-6.14-16.55-9.32-7.62-4.43-15.13-9.05-22.78-13.45-12.25-7.05-24.58-13.97-36.85-20.97-3.33-1.9-6.62-3.89-9.89-5.9-3.7-2.28-7.74-3.77-11.96-2.53-9.39,2.75-10.87,13.76-5.85,19.07,1.23,1.3,2.66,2.48,4.2,3.4,4.66,2.78,9.42,5.39,14.12,8.1,7.15,4.13,14.25,8.34,21.41,12.44,9.9,5.68,19.86,11.25,29.76,16.95,10.39,5.98,20.7,12.09,31.09,18.05,10,5.74,20.07,11.35,30.09,17.04,6.48,3.68,12.97,7.37,19.41,11.11,10.25,5.95,20.45,12.01,30.72,17.93,10.35,5.97,17.67,14.5,22.66,25.34,3.39,7.38,4.85,15.09,4.88,23.04.13,29.38.07,58.76.04,88.14,0,7.99,4.19,10.47,9.68,12.6,1.18.46,2.83.46,4.02.02,4.84-1.77,9.76-4.8,9.69-12.27-.15-16.11-.05-32.22-.05-48.32Zm106.09-3.78c0-32.11-.02-64.22.01-96.34,0-9-1.04-17.78-3.88-26.38-3.83-11.62-10.01-21.75-18.39-30.58-6.38-6.73-14.14-11.63-22.12-16.2-7.16-4.11-14.3-8.25-21.46-12.37-4.22-2.43-8.42-4.89-12.7-7.2-3.38-1.83-7.05-1.97-10.49-.41-4.24,1.93-6.68,5.5-6.88,10.16-.19,4.48,1.65,8.16,5.59,10.56,3.57,2.18,7.16,4.33,10.78,6.43,7.34,4.27,14.62,8.63,22.06,12.7,9.35,5.11,17.81,11.14,23.96,20.09,4.23,6.17,7.04,12.88,8.75,20.11,1.08,4.57,1,9.22,1,13.87,0,65.93.03,131.85-.05,197.78,0,5.25,2.24,8.85,6.49,11.45,3.83,2.35,9.62,1.59,12.99-1.34,3.14-2.74,4.37-6.11,4.36-10.22-.05-34.04-.03-68.08-.03-102.12Zm-65.68-94.17c3.61-4.18,4.42-10.52.98-14.65-.79-.95-1.34-2.1-2.05-3.12-5.38-7.8-11.63-14.79-19.68-19.89-6.68-4.24-13.53-8.21-20.39-12.17-14.29-8.26-28.64-16.43-42.96-24.66-2.53-1.45-2.63-2.65-.22-4.16,4.12-2.58,8.33-5.03,12.52-7.51,6.61-3.92,13.37-7.63,19.81-11.82,3.67-2.39,5.76-6.12,5.2-10.75-.45-3.69-2.49-6.53-5.52-8.6-1.96-1.34-4.08-2.45-6.13-3.65-8-4.71-15.98-9.44-24-14.11-7.71-4.5-15.47-8.92-23.18-13.41-7.73-4.5-15.42-9.06-23.14-13.58-8.3-4.86-16.59-9.74-24.93-14.54-4.41-2.54-8.99-4.79-13.36-7.4-5.46-3.27-15.12,1.84-15.78,9.56-.47,5.55,2.05,9.34,6.58,12.07,3.87,2.33,7.79,4.58,11.69,6.88,4.38,2.59,8.72,5.23,13.13,7.77,5.78,3.33,11.63,6.53,17.4,9.88,9.59,5.56,19.13,11.21,28.69,16.81,6.64,3.89,13.31,7.71,19.91,11.66,2.48,1.48,2.46,2.7-.01,4.18-4.46,2.68-8.99,5.24-13.49,7.87-6.25,3.66-12.56,7.22-18.71,11.04-3.57,2.22-5.61,5.53-5.22,10.08-.52,4.62,2.19,7.75,5.73,9.94,7.51,4.62,15.25,8.87,22.9,13.24,10.41,5.95,20.84,11.85,31.23,17.82,8.34,4.79,16.65,9.64,24.97,14.47,7.69,4.46,13.92,10.4,18.59,17.99,1.44,2.35,3.28,4.36,5.89,5.46,4.55,1.92,10.7.6,13.53-2.67Zm-146.05,148.56c0-10.66-.07-21.32.02-31.98.08-9.68-2.32-18.82-5.77-27.72-3.01-7.76-7.38-14.79-12.8-21.1-6.79-7.89-14.93-14.13-24.02-19.21-8.19-4.58-16.27-9.35-24.39-14.05-5.1-2.95-10.16-5.96-15.26-8.89-6.47-3.71-12.94-7.41-19.46-11.03-3.95-2.2-7.87-4.53-12.03-6.26-4.32-1.8-9.6.23-12.48,3.75-4.42,5.4-3.02,14.3,3.47,17.89,6.13,3.39,12.16,6.98,18.24,10.47,9.51,5.47,19.02,10.93,28.54,16.39,6.77,3.88,13.58,7.71,20.33,11.63,5.38,3.12,10.73,6.28,15.21,10.71,7.68,7.58,12.71,16.58,15.41,27.04,1.18,4.59,1.29,9.18,1.3,13.82.02,20.98.01,41.97.01,62.95,0,1.13-.05,2.27.03,3.4.36,5.28,3.82,9.27,7.78,10.61,8.25,2.8,15.85-2.6,15.88-11.34.05-12.36.01-24.73.01-37.09h-.02Zm52.3-69.66c-.88-5.56-2.25-11.07-3.75-16.51-1.23-4.45-3.17-8.64-5.53-12.65-2.75-4.69-5.69-9.23-9.24-13.35-9.12-10.61-21.05-17.34-33.17-23.76-1.89-1-4.39-1.42-6.54-1.26-4.79.35-9.28,4.53-10.16,9.17-.92,4.89.7,9.28,5.18,12.4,1.84,1.28,3.95,2.17,5.85,3.38,5.14,3.27,10.71,6.08,15.26,10.05,12.76,11.13,19.23,25.37,19.2,42.44-.04,20.3-.01,40.6-.01,60.9h-.02c0,21.21,0,42.41,0,63.62,0,1.25-.05,2.5.04,3.74.4,5.75,4.32,10.19,9.74,11.09,5.59.93,10.95-2.08,12.92-7.61.74-2.07.98-4.42.99-6.64.06-40.48.08-80.97.03-121.45,0-4.52-.1-9.09-.8-13.53Zm106.38-31.74c0-1.13.04-2.28-.09-3.4-.67-5.73-4.26-9.26-10.44-10.37-4.28-.77-9.14,2.18-11.59,6.58-1.21,2.17-1.08,4.36-1.08,6.59-.03,29.26-.02,58.51-.02,87.77h.05c0,12.02,0,24.04,0,36.06,0,17.92,0,35.83.05,53.75.02,6.28,4.99,10.38,9.92,11.3,5.47,1.02,11-2.35,12.74-7.81.61-1.9.95-3.98.94-5.98-.08-17.91-.37-35.81-.4-53.72-.08-40.26-.06-80.51-.08-120.77Zm159.11-92.28c-.07-8.84-.1-17.68-.41-26.52-.24-6.83-1.94-13.44-4.08-19.89-2.52-7.56-6.29-14.51-11.05-20.92-5.59-7.53-12.12-14.14-20.13-19.01-12.86-7.81-25.89-15.34-38.97-22.78-2.48-1.41-5.49-2.49-8.3-2.6-5.19-.19-9.86,3.83-11.16,8.86-1.08,4.18.26,10,5.19,13,3.2,1.94,6.43,3.81,9.67,5.69,7.24,4.2,14.5,8.36,21.74,12.56,5.97,3.46,11.95,6.88,16.91,11.81,3.97,3.95,7.38,8.32,10.01,13.23,4.96,9.27,6.94,19.28,6.86,29.75-.05,6.58,0,13.15,0,19.73h.01c0,8.05-.07,16.1.03,24.15.06,5.07,3.22,8.91,8.23,10.42,4.82,1.45,9.8-.23,12.78-4.05,2.33-2.99,2.68-6.42,2.69-9.96.03-7.82.06-15.65,0-23.47ZM364.4,62.07c1.85,1.3,3.92,2.26,5.88,3.4,6.75,3.93,13.47,7.9,20.23,11.8,8.62,4.98,17.3,9.87,25.91,14.86,9.69,5.61,19.34,11.3,29.02,16.93,7.33,4.26,14.69,8.49,22.04,12.72,4.22,2.43,8.38,4.97,12.69,7.22,1.86.97,4.13,2.04,6.06,1.8,6.13-.75,11.97-4.84,11.42-12.44.41-5.07-2.37-8.38-6.6-10.79-2.74-1.56-5.51-3.07-8.24-4.65-6.36-3.68-12.71-7.4-19.07-11.1-6.95-4.04-13.91-8.07-20.85-12.11-8.21-4.78-16.4-9.6-24.63-14.35-7.15-4.13-14.35-8.17-21.49-12.32-7.24-4.2-14.4-8.55-21.68-12.69-5.14-2.93-11.85-1.97-15.2,2.37-4.03,5.22-4.33,9.56-.56,14.96,1.25,1.78,3.24,3.12,5.07,4.4Zm-127.59,359.93c-.03-5.01-.58-9.91-2.15-14.69-1.64-4.98-3.82-9.72-6.67-14.07-5.55-8.47-13.12-14.98-21.53-20.41-8.83-5.71-17.93-11-27.02-16.31-4.1-2.39-8.42-2.27-12.53.19-7.27,4.37-6.93,14.37-.62,19.24,1.87,1.44,3.99,2.56,6.02,3.81,6.93,4.27,13.9,8.48,20.8,12.8,4.61,2.9,8.93,6.18,12.66,10.21,3.08,3.32,5.2,7.22,6.3,11.49,1.21,4.7,1.75,9.56,1.55,14.47-.16,4.08.06,8.16-.03,12.24-.04,2.1.39,3.98,1.38,5.84,2.35,4.45,7.48,7.03,12.51,6.32,4.15-.58,9.13-4.75,9.38-9.44.09-1.8.4-3.59.61-5.38-.11,0-.22-.01-.32-.02-.12-5.43-.3-10.86-.33-16.3Zm-32.56-267.2c4.86,2.61,9.62,5.41,14.39,8.19,5.66,3.29,11.23,6.72,16.92,9.96,7.94,4.53,15.98,8.89,23.92,13.41,5.29,3.02,10.42,6.33,15.75,9.27,9.7,5.35,19.18-2.22,18.46-9.71-.45-1.7-.77-3.46-1.38-5.1-1.39-3.7-4.86-5.2-7.93-7.04-3.48-2.09-7.09-3.96-10.61-5.99-9.49-5.49-18.95-11.05-28.45-16.52-8.41-4.85-16.85-9.65-25.3-14.42-1.97-1.11-4.01-2.15-6.12-2.92-5.68-2.09-12.03.65-14.46,6.16-2.2,4.99-.46,11.9,4.82,14.73Zm-36.03,100.19c1.05.67,2.05,1.43,3.12,2.06,10.97,6.32,21.96,12.6,32.92,18.93,8.72,5.04,17.38,10.17,26.1,15.2,3.52,2.03,7.03,4.16,10.74,5.79,5.64,2.48,12.4-.17,14.91-5.76,2.69-5.98.4-12.23-4.56-15.12-3.91-2.27-7.8-4.58-11.71-6.85-9.2-5.32-18.44-10.58-27.63-15.92-10.07-5.85-20.07-11.8-30.16-17.6-2.15-1.23-4.5-2.21-6.81-1.82-5.2,0-9.75,2.54-11.09,6.34-1.61,4.56-1.69,11,4.16,14.76Zm143.95-165.79c3.51,2.48,7.15,4.78,10.84,6.99,8.33,4.99,16.73,9.88,25.09,14.82,5.84,3.45,11.66,6.92,17.5,10.37,1.88,1.11,3.83,2.01,5.91,1.71,4.73.26,8.06-1.8,10.29-5.59,3.2-5.43,1.89-12.67-4.45-16.48-4.06-2.45-8.08-4.95-12.16-7.37-11.67-6.92-23.36-13.8-35.04-20.7-1.85-1.09-3.64-2.31-5.57-3.23-4.48-2.14-9.88-1.2-13.21,2.13-3.32,3.31-4.48,9.29-2.39,13.54.71,1.45,1.87,2.87,3.18,3.8Zm224.81,293.43c-4.21,2.75-6.06,6.47-6.05,11.37.03,19.26.01,38.52.01,57.78,0,.68-.02,1.36.05,2.04.47,4.69,2.96,8.14,7.15,9.98,3.82,1.67,7.87,1.36,11.26-1.24,2.84-2.17,4.77-5.02,4.74-8.92-.08-10.2-.03-20.39-.03-30.59h-.01c0-10.42-.22-20.85.08-31.27.21-7.25-9.84-13.96-17.2-9.15Zm-143.01,95.47c-4.05-7.69-15.46-7.85-19.82-.95-1.78,2.81-2.36,5.89-2.37,9.08-.06,15.19-.1,30.39.04,45.58.02,2.29.66,4.77,1.68,6.83,2.97,6,9.78,7.51,15.42,4.89,4.34-2.02,6.59-5.68,6.56-10.62-.04-8.05,0-16.1,0-24.15h.02c0-8.05-.05-16.1.03-24.15.02-2.34-.47-4.45-1.55-6.51Zm-210.54-64.21c-2.34-1.69-4.98-3.13-7.7-4.12-6.62-2.41-15.45,3.14-14.95,11.2.38,1.62.59,3.31,1.18,4.84,1.88,4.82,6.25,6.48,10.6,8.23,3.3,1.33,6.4.53,9.05-1.13,7.79-4.85,7.32-15.06,1.82-19.03Z"/>
    </clipPath>
    <linearGradient id="linear-gradient-2" x1="306.48" y1="496.43" x2="479.15" y2="95.74" xlink:href="#linear-gradient"/>
    <linearGradient id="linear-gradient-3" x1="0" y1="628.94" x2="770.09" y2="628.94" gradientUnits="userSpaceOnUse">
      <stop offset="0" stop-color="#8065fd"/>
      <stop offset=".25" stop-color="#458afe"/>
      <stop offset=".5" stop-color="#239dfc"/>
      <stop offset=".75" stop-color="#16a5d8"/>
      <stop offset="1" stop-color="#03a38d"/>
    </linearGradient>
  </defs>
  <g id="Layer_1-2" data-name="Layer 1">
    <g>
      <g>
        <path class="cls-2" d="m607.28,316.25c-.1,18.38-.04,36.76-.05,55.14,0,18.27.02,36.53,0,54.8-.01,8.01-7.03,13.4-14.75,11.42-4.88-1.25-8.44-5.76-8.46-10.98-.05-14.41-.03-28.82-.03-43.22,0-13.84,0-27.68,0-41.52,0-.34,0-.68,0-1.02-.1-3.42-.86-3.89-3.81-2.19-7.84,4.51-15.65,9.07-23.47,13.62-2.44,1.42-4.85,2.9-7.33,4.25-3.18,1.73-6.45,2.51-10.13,1.4-4.34-1.32-8.11-5.36-8.31-10.84-.05-1.36-.03-2.72-.03-4.08,0-28.93.03-57.86-.03-86.79-.01-4.75-.36-9.5-.73-14.24-.13-1.67-.75-3.3-1.22-4.93-2.35-8.26-6.21-15.64-11.89-22.21-5.38-6.23-12.26-10.28-19.07-14.51-4.8-2.98-9.73-5.76-14.6-8.64-8.17-4.84-16.35-9.67-24.51-14.53-4.86-2.9-9.66-5.89-14.52-8.77-6.12-3.64-12.31-7.17-18.41-10.83-5.34-3.2-10.55-6.63-15.93-9.77-6.99-4.08-6.82-14.8-.73-19.11,4.03-2.85,8.87-3.44,14.37-.16,9.72,5.78,19.39,11.65,29.07,17.49,12.21,7.36,24.4,14.75,36.64,22.06,9.61,5.74,19.42,11.16,28.87,17.14,10.17,6.44,18.44,14.83,24.68,25.27,3.22,5.38,5.94,10.94,7.73,16.88,1.73,5.71,3.23,11.48,3.49,17.58,1.06,25.06.23,50.12.51,75.18.06,5.62.09,5.75,4.94,3.1,5.75-3.14,11.34-6.56,17.02-9.83,4.61-2.65,9.24-5.26,13.86-7.9,4.28-2.44,8.31-1.66,12.02,1.16,3.13,2.37,4.85,5.45,4.83,9.61Zm-211.79,67.95h.01c0-14.63-.07-29.27.03-43.9.05-7.92-1.53-15.51-4.02-22.95-3.68-11.02-9.73-20.61-17.7-29.02-6.94-7.32-15.39-12.56-24.08-17.47-9.15-5.18-18.26-10.42-27.38-15.65-5-2.87-9.96-5.81-14.96-8.68-8.25-4.73-16.52-9.42-24.77-14.14-5-2.86-9.97-5.78-14.98-8.62-5.51-3.13-11.08-6.14-16.55-9.32-7.62-4.43-15.13-9.05-22.78-13.45-12.25-7.05-24.58-13.97-36.85-20.97-3.33-1.9-6.62-3.89-9.89-5.9-3.7-2.28-7.74-3.77-11.96-2.53-9.39,2.75-10.87,13.76-5.85,19.07,1.23,1.3,2.66,2.48,4.2,3.4,4.66,2.78,9.42,5.39,14.12,8.1,7.15,4.13,14.25,8.34,21.41,12.44,9.9,5.68,19.86,11.25,29.76,16.95,10.39,5.98,20.7,12.09,31.09,18.05,10,5.74,20.07,11.35,30.09,17.04,6.48,3.68,12.97,7.37,19.41,11.11,10.25,5.95,20.45,12.01,30.72,17.93,10.35,5.97,17.67,14.5,22.66,25.34,3.39,7.38,4.85,15.09,4.88,23.04.13,29.38.07,58.76.04,88.14,0,7.99,4.19,10.47,9.68,12.6,1.18.46,2.83.46,4.02.02,4.84-1.77,9.76-4.8,9.69-12.27-.15-16.11-.05-32.22-.05-48.32Zm106.09-3.78c0-32.11-.02-64.22.01-96.34,0-9-1.04-17.78-3.88-26.38-3.83-11.62-10.01-21.75-18.39-30.58-6.38-6.73-14.14-11.63-22.12-16.2-7.16-4.11-14.3-8.25-21.46-12.37-4.22-2.43-8.42-4.89-12.7-7.2-3.38-1.83-7.05-1.97-10.49-.41-4.24,1.93-6.68,5.5-6.88,10.16-.19,4.48,1.65,8.16,5.59,10.56,3.57,2.18,7.16,4.33,10.78,6.43,7.34,4.27,14.62,8.63,22.06,12.7,9.35,5.11,17.81,11.14,23.96,20.09,4.23,6.17,7.04,12.88,8.75,20.11,1.08,4.57,1,9.22,1,13.87,0,65.93.03,131.85-.05,197.78,0,5.25,2.24,8.85,6.49,11.45,3.83,2.35,9.62,1.59,12.99-1.34,3.14-2.74,4.37-6.11,4.36-10.22-.05-34.04-.03-68.08-.03-102.12Zm-65.68-94.17c3.61-4.18,4.42-10.52.98-14.65-.79-.95-1.34-2.1-2.05-3.12-5.38-7.8-11.63-14.79-19.68-19.89-6.68-4.24-13.53-8.21-20.39-12.17-14.29-8.26-28.64-16.43-42.96-24.66-2.53-1.45-2.63-2.65-.22-4.16,4.12-2.58,8.33-5.03,12.52-7.51,6.61-3.92,13.37-7.63,19.81-11.82,3.67-2.39,5.76-6.12,5.2-10.75-.45-3.69-2.49-6.53-5.52-8.6-1.96-1.34-4.08-2.45-6.13-3.65-8-4.71-15.98-9.44-24-14.11-7.71-4.5-15.47-8.92-23.18-13.41-7.73-4.5-15.42-9.06-23.14-13.58-8.3-4.86-16.59-9.74-24.93-14.54-4.41-2.54-8.99-4.79-13.36-7.4-5.46-3.27-15.12,1.84-15.78,9.56-.47,5.55,2.05,9.34,6.58,12.07,3.87,2.33,7.79,4.58,11.69,6.88,4.38,2.59,8.72,5.23,13.13,7.77,5.78,3.33,11.63,6.53,17.4,9.88,9.59,5.56,19.13,11.21,28.69,16.81,6.64,3.89,13.31,7.71,19.91,11.66,2.48,1.48,2.46,2.7-.01,4.18-4.46,2.68-8.99,5.24-13.49,7.87-6.25,3.66-12.56,7.22-18.71,11.04-3.57,2.22-5.61,5.53-5.22,10.08-.52,4.62,2.19,7.75,5.73,9.94,7.51,4.62,15.25,8.87,22.9,13.24,10.41,5.95,20.84,11.85,31.23,17.82,8.34,4.79,16.65,9.64,24.97,14.47,7.69,4.46,13.92,10.4,18.59,17.99,1.44,2.35,3.28,4.36,5.89,5.46,4.55,1.92,10.7.6,13.53-2.67Zm-146.05,148.56c0-10.66-.07-21.32.02-31.98.08-9.68-2.32-18.82-5.77-27.72-3.01-7.76-7.38-14.79-12.8-21.1-6.79-7.89-14.93-14.13-24.02-19.21-8.19-4.58-16.27-9.35-24.39-14.05-5.1-2.95-10.16-5.96-15.26-8.89-6.47-3.71-12.94-7.41-19.46-11.03-3.95-2.2-7.87-4.53-12.03-6.26-4.32-1.8-9.6.23-12.48,3.75-4.42,5.4-3.02,14.3,3.47,17.89,6.13,3.39,12.16,6.98,18.24,10.47,9.51,5.47,19.02,10.93,28.54,16.39,6.77,3.88,13.58,7.71,20.33,11.63,5.38,3.12,10.73,6.28,15.21,10.71,7.68,7.58,12.71,16.58,15.41,27.04,1.18,4.59,1.29,9.18,1.3,13.82.02,20.98.01,41.97.01,62.95,0,1.13-.05,2.27.03,3.4.36,5.28,3.82,9.27,7.78,10.61,8.25,2.8,15.85-2.6,15.88-11.34.05-12.36.01-24.73.01-37.09h-.02Zm52.3-69.66c-.88-5.56-2.25-11.07-3.75-16.51-1.23-4.45-3.17-8.64-5.53-12.65-2.75-4.69-5.69-9.23-9.24-13.35-9.12-10.61-21.05-17.34-33.17-23.76-1.89-1-4.39-1.42-6.54-1.26-4.79.35-9.28,4.53-10.16,9.17-.92,4.89.7,9.28,5.18,12.4,1.84,1.28,3.95,2.17,5.85,3.38,5.14,3.27,10.71,6.08,15.26,10.05,12.76,11.13,19.23,25.37,19.2,42.44-.04,20.3-.01,40.6-.01,60.9h-.02c0,21.21,0,42.41,0,63.62,0,1.25-.05,2.5.04,3.74.4,5.75,4.32,10.19,9.74,11.09,5.59.93,10.95-2.08,12.92-7.61.74-2.07.98-4.42.99-6.64.06-40.48.08-80.97.03-121.45,0-4.52-.1-9.09-.8-13.53Zm106.38-31.74c0-1.13.04-2.28-.09-3.4-.67-5.73-4.26-9.26-10.44-10.37-4.28-.77-9.14,2.18-11.59,6.58-1.21,2.17-1.08,4.36-1.08,6.59-.03,29.26-.02,58.51-.02,87.77h.05c0,12.02,0,24.04,0,36.06,0,17.92,0,35.83.05,53.75.02,6.28,4.99,10.38,9.92,11.3,5.47,1.02,11-2.35,12.74-7.81.61-1.9.95-3.98.94-5.98-.08-17.91-.37-35.81-.4-53.72-.08-40.26-.06-80.51-.08-120.77Zm159.11-92.28c-.07-8.84-.1-17.68-.41-26.52-.24-6.83-1.94-13.44-4.08-19.89-2.52-7.56-6.29-14.51-11.05-20.92-5.59-7.53-12.12-14.14-20.13-19.01-12.86-7.81-25.89-15.34-38.97-22.78-2.48-1.41-5.49-2.49-8.3-2.6-5.19-.19-9.86,3.83-11.16,8.86-1.08,4.18.26,10,5.19,13,3.2,1.94,6.43,3.81,9.67,5.69,7.24,4.2,14.5,8.36,21.74,12.56,5.97,3.46,11.95,6.88,16.91,11.81,3.97,3.95,7.38,8.32,10.01,13.23,4.96,9.27,6.94,19.28,6.86,29.75-.05,6.58,0,13.15,0,19.73h.01c0,8.05-.07,16.1.03,24.15.06,5.07,3.22,8.91,8.23,10.42,4.82,1.45,9.8-.23,12.78-4.05,2.33-2.99,2.68-6.42,2.69-9.96.03-7.82.06-15.65,0-23.47ZM364.4,62.07c1.85,1.3,3.92,2.26,5.88,3.4,6.75,3.93,13.47,7.9,20.23,11.8,8.62,4.98,17.3,9.87,25.91,14.86,9.69,5.61,19.34,11.3,29.02,16.93,7.33,4.26,14.69,8.49,22.04,12.72,4.22,2.43,8.38,4.97,12.69,7.22,1.86.97,4.13,2.04,6.06,1.8,6.13-.75,11.97-4.84,11.42-12.44.41-5.07-2.37-8.38-6.6-10.79-2.74-1.56-5.51-3.07-8.24-4.65-6.36-3.68-12.71-7.4-19.07-11.1-6.95-4.04-13.91-8.07-20.85-12.11-8.21-4.78-16.4-9.6-24.63-14.35-7.15-4.13-14.35-8.17-21.49-12.32-7.24-4.2-14.4-8.55-21.68-12.69-5.14-2.93-11.85-1.97-15.2,2.37-4.03,5.22-4.33,9.56-.56,14.96,1.25,1.78,3.24,3.12,5.07,4.4Zm-127.59,359.93c-.03-5.01-.58-9.91-2.15-14.69-1.64-4.98-3.82-9.72-6.67-14.07-5.55-8.47-13.12-14.98-21.53-20.41-8.83-5.71-17.93-11-27.02-16.31-4.1-2.39-8.42-2.27-12.53.19-7.27,4.37-6.93,14.37-.62,19.24,1.87,1.44,3.99,2.56,6.02,3.81,6.93,4.27,13.9,8.48,20.8,12.8,4.61,2.9,8.93,6.18,12.66,10.21,3.08,3.32,5.2,7.22,6.3,11.49,1.21,4.7,1.75,9.56,1.55,14.47-.16,4.08.06,8.16-.03,12.24-.04,2.1.39,3.98,1.38,5.84,2.35,4.45,7.48,7.03,12.51,6.32,4.15-.58,9.13-4.75,9.38-9.44.09-1.8.4-3.59.61-5.38-.11,0-.22-.01-.32-.02-.12-5.43-.3-10.86-.33-16.3Zm-32.56-267.2c4.86,2.61,9.62,5.41,14.39,8.19,5.66,3.29,11.23,6.72,16.92,9.96,7.94,4.53,15.98,8.89,23.92,13.41,5.29,3.02,10.42,6.33,15.75,9.27,9.7,5.35,19.18-2.22,18.46-9.71-.45-1.7-.77-3.46-1.38-5.1-1.39-3.7-4.86-5.2-7.93-7.04-3.48-2.09-7.09-3.96-10.61-5.99-9.49-5.49-18.95-11.05-28.45-16.52-8.41-4.85-16.85-9.65-25.3-14.42-1.97-1.11-4.01-2.15-6.12-2.92-5.68-2.09-12.03.65-14.46,6.16-2.2,4.99-.46,11.9,4.82,14.73Zm-36.03,100.19c1.05.67,2.05,1.43,3.12,2.06,10.97,6.32,21.96,12.6,32.92,18.93,8.72,5.04,17.38,10.17,26.1,15.2,3.52,2.03,7.03,4.16,10.74,5.79,5.64,2.48,12.4-.17,14.91-5.76,2.69-5.98.4-12.23-4.56-15.12-3.91-2.27-7.8-4.58-11.71-6.85-9.2-5.32-18.44-10.58-27.63-15.92-10.07-5.85-20.07-11.8-30.16-17.6-2.15-1.23-4.5-2.21-6.81-1.82-5.2,0-9.75,2.54-11.09,6.34-1.61,4.56-1.69,11,4.16,14.76Zm143.95-165.79c3.51,2.48,7.15,4.78,10.84,6.99,8.33,4.99,16.73,9.88,25.09,14.82,5.84,3.45,11.66,6.92,17.5,10.37,1.88,1.11,3.83,2.01,5.91,1.71,4.73.26,8.06-1.8,10.29-5.59,3.2-5.43,1.89-12.67-4.45-16.48-4.06-2.45-8.08-4.95-12.16-7.37-11.67-6.92-23.36-13.8-35.04-20.7-1.85-1.09-3.64-2.31-5.57-3.23-4.48-2.14-9.88-1.2-13.21,2.13-3.32,3.31-4.48,9.29-2.39,13.54.71,1.45,1.87,2.87,3.18,3.8Zm224.81,293.43c-4.21,2.75-6.06,6.47-6.05,11.37.03,19.26.01,38.52.01,57.78,0,.68-.02,1.36.05,2.04.47,4.69,2.96,8.14,7.15,9.98,3.82,1.67,7.87,1.36,11.26-1.24,2.84-2.17,4.77-5.02,4.74-8.92-.08-10.2-.03-20.39-.03-30.59h-.01c0-10.42-.22-20.85.08-31.27.21-7.25-9.84-13.96-17.2-9.15Zm-143.01,95.47c-4.05-7.69-15.46-7.85-19.82-.95-1.78,2.81-2.36,5.89-2.37,9.08-.06,15.19-.1,30.39.04,45.58.02,2.29.66,4.77,1.68,6.83,2.97,6,9.78,7.51,15.42,4.89,4.34-2.02,6.59-5.68,6.56-10.62-.04-8.05,0-16.1,0-24.15h.02c0-8.05-.05-16.1.03-24.15.02-2.34-.47-4.45-1.55-6.51Zm-210.54-64.21c-2.34-1.69-4.98-3.13-7.7-4.12-6.62-2.41-15.45,3.14-14.95,11.2.38,1.62.59,3.31,1.18,4.84,1.88,4.82,6.25,6.48,10.6,8.23,3.3,1.33,6.4.53,9.05-1.13,7.79-4.85,7.32-15.06,1.82-19.03Z"/>
        <g class="cls-6">
          <rect class="cls-4" x="86.98" y=".5" width="617.09" height="578.62"/>
        </g>
        <path class="cls-3" d="m607.28,316.25c-.1,18.38-.04,36.76-.05,55.14,0,18.27.02,36.53,0,54.8-.01,8.01-7.03,13.4-14.75,11.42-4.88-1.25-8.44-5.76-8.46-10.98-.05-14.41-.03-28.82-.03-43.22,0-13.84,0-27.68,0-41.52,0-.34,0-.68,0-1.02-.1-3.42-.86-3.89-3.81-2.19-7.84,4.51-15.65,9.07-23.47,13.62-2.44,1.42-4.85,2.9-7.33,4.25-3.18,1.73-6.45,2.51-10.13,1.4-4.34-1.32-8.11-5.36-8.31-10.84-.05-1.36-.03-2.72-.03-4.08,0-28.93.03-57.86-.03-86.79-.01-4.75-.36-9.5-.73-14.24-.13-1.67-.75-3.3-1.22-4.93-2.35-8.26-6.21-15.64-11.89-22.21-5.38-6.23-12.26-10.28-19.07-14.51-4.8-2.98-9.73-5.76-14.6-8.64-8.17-4.84-16.35-9.67-24.51-14.53-4.86-2.9-9.66-5.89-14.52-8.77-6.12-3.64-12.31-7.17-18.41-10.83-5.34-3.2-10.55-6.63-15.93-9.77-6.99-4.08-6.82-14.8-.73-19.11,4.03-2.85,8.87-3.44,14.37-.16,9.72,5.78,19.39,11.65,29.07,17.49,12.21,7.36,24.4,14.75,36.64,22.06,9.61,5.74,19.42,11.16,28.87,17.14,10.17,6.44,18.44,14.83,24.68,25.27,3.22,5.38,5.94,10.94,7.73,16.88,1.73,5.71,3.23,11.48,3.49,17.58,1.06,25.06.23,50.12.51,75.18.06,5.62.09,5.75,4.94,3.1,5.75-3.14,11.34-6.56,17.02-9.83,4.61-2.65,9.24-5.26,13.86-7.9,4.28-2.44,8.31-1.66,12.02,1.16,3.13,2.37,4.85,5.45,4.83,9.61Zm-211.79,67.95h.01c0-14.63-.07-29.27.03-43.9.05-7.92-1.53-15.51-4.02-22.95-3.68-11.02-9.73-20.61-17.7-29.02-6.94-7.32-15.39-12.56-24.08-17.47-9.15-5.18-18.26-10.42-27.38-15.65-5-2.87-9.96-5.81-14.96-8.68-8.25-4.73-16.52-9.42-24.77-14.14-5-2.86-9.97-5.78-14.98-8.62-5.51-3.13-11.08-6.14-16.55-9.32-7.62-4.43-15.13-9.05-22.78-13.45-12.25-7.05-24.58-13.97-36.85-20.97-3.33-1.9-6.62-3.89-9.89-5.9-3.7-2.28-7.74-3.77-11.96-2.53-9.39,2.75-10.87,13.76-5.85,19.07,1.23,1.3,2.66,2.48,4.2,3.4,4.66,2.78,9.42,5.39,14.12,8.1,7.15,4.13,14.25,8.34,21.41,12.44,9.9,5.68,19.86,11.25,29.76,16.95,10.39,5.98,20.7,12.09,31.09,18.05,10,5.74,20.07,11.35,30.09,17.04,6.48,3.68,12.97,7.37,19.41,11.11,10.25,5.95,20.45,12.01,30.72,17.93,10.35,5.97,17.67,14.5,22.66,25.34,3.39,7.38,4.85,15.09,4.88,23.04.13,29.38.07,58.76.04,88.14,0,7.99,4.19,10.47,9.68,12.6,1.18.46,2.83.46,4.02.02,4.84-1.77,9.76-4.8,9.69-12.27-.15-16.11-.05-32.22-.05-48.32Zm106.09-3.78c0-32.11-.02-64.22.01-96.34,0-9-1.04-17.78-3.88-26.38-3.83-11.62-10.01-21.75-18.39-30.58-6.38-6.73-14.14-11.63-22.12-16.2-7.16-4.11-14.3-8.25-21.46-12.37-4.22-2.43-8.42-4.89-12.7-7.2-3.38-1.83-7.05-1.97-10.49-.41-4.24,1.93-6.68,5.5-6.88,10.16-.19,4.48,1.65,8.16,5.59,10.56,3.57,2.18,7.16,4.33,10.78,6.43,7.34,4.27,14.62,8.63,22.06,12.7,9.35,5.11,17.81,11.14,23.96,20.09,4.23,6.17,7.04,12.88,8.75,20.11,1.08,4.57,1,9.22,1,13.87,0,65.93.03,131.85-.05,197.78,0,5.25,2.24,8.85,6.49,11.45,3.83,2.35,9.62,1.59,12.99-1.34,3.14-2.74,4.37-6.11,4.36-10.22-.05-34.04-.03-68.08-.03-102.12Zm-65.68-94.17c3.61-4.18,4.42-10.52.98-14.65-.79-.95-1.34-2.1-2.05-3.12-5.38-7.8-11.63-14.79-19.68-19.89-6.68-4.24-13.53-8.21-20.39-12.17-14.29-8.26-28.64-16.43-42.96-24.66-2.53-1.45-2.63-2.65-.22-4.16,4.12-2.58,8.33-5.03,12.52-7.51,6.61-3.92,13.37-7.63,19.81-11.82,3.67-2.39,5.76-6.12,5.2-10.75-.45-3.69-2.49-6.53-5.52-8.6-1.96-1.34-4.08-2.45-6.13-3.65-8-4.71-15.98-9.44-24-14.11-7.71-4.5-15.47-8.92-23.18-13.41-7.73-4.5-15.42-9.06-23.14-13.58-8.3-4.86-16.59-9.74-24.93-14.54-4.41-2.54-8.99-4.79-13.36-7.4-5.46-3.27-15.12,1.84-15.78,9.56-.47,5.55,2.05,9.34,6.58,12.07,3.87,2.33,7.79,4.58,11.69,6.88,4.38,2.59,8.72,5.23,13.13,7.77,5.78,3.33,11.63,6.53,17.4,9.88,9.59,5.56,19.13,11.21,28.69,16.81,6.64,3.89,13.31,7.71,19.91,11.66,2.48,1.48,2.46,2.7-.01,4.18-4.46,2.68-8.99,5.24-13.49,7.87-6.25,3.66-12.56,7.22-18.71,11.04-3.57,2.22-5.61,5.53-5.22,10.08-.52,4.62,2.19,7.75,5.73,9.94,7.51,4.62,15.25,8.87,22.9,13.24,10.41,5.95,20.84,11.85,31.23,17.82,8.34,4.79,16.65,9.64,24.97,14.47,7.69,4.46,13.92,10.4,18.59,17.99,1.44,2.35,3.28,4.36,5.89,5.46,4.55,1.92,10.7.6,13.53-2.67Zm-146.05,148.56c0-10.66-.07-21.32.02-31.98.08-9.68-2.32-18.82-5.77-27.72-3.01-7.76-7.38-14.79-12.8-21.1-6.79-7.89-14.93-14.13-24.02-19.21-8.19-4.58-16.27-9.35-24.39-14.05-5.1-2.95-10.16-5.96-15.26-8.89-6.47-3.71-12.94-7.41-19.46-11.03-3.95-2.2-7.87-4.53-12.03-6.26-4.32-1.8-9.6.23-12.48,3.75-4.42,5.4-3.02,14.3,3.47,17.89,6.13,3.39,12.16,6.98,18.24,10.47,9.51,5.47,19.02,10.93,28.54,16.39,6.77,3.88,13.58,7.71,20.33,11.63,5.38,3.12,10.73,6.28,15.21,10.71,7.68,7.58,12.71,16.58,15.41,27.04,1.18,4.59,1.29,9.18,1.3,13.82.02,20.98.01,41.97.01,62.95,0,1.13-.05,2.27.03,3.4.36,5.28,3.82,9.27,7.78,10.61,8.25,2.8,15.85-2.6,15.88-11.34.05-12.36.01-24.73.01-37.09h-.02Zm52.3-69.66c-.88-5.56-2.25-11.07-3.75-16.51-1.23-4.45-3.17-8.64-5.53-12.65-2.75-4.69-5.69-9.23-9.24-13.35-9.12-10.61-21.05-17.34-33.17-23.76-1.89-1-4.39-1.42-6.54-1.26-4.79.35-9.28,4.53-10.16,9.17-.92,4.89.7,9.28,5.18,12.4,1.84,1.28,3.95,2.17,5.85,3.38,5.14,3.27,10.71,6.08,15.26,10.05,12.76,11.13,19.23,25.37,19.2,42.44-.04,20.3-.01,40.6-.01,60.9h-.02c0,21.21,0,42.41,0,63.62,0,1.25-.05,2.5.04,3.74.4,5.75,4.32,10.19,9.74,11.09,5.59.93,10.95-2.08,12.92-7.61.74-2.07.98-4.42.99-6.64.06-40.48.08-80.97.03-121.45,0-4.52-.1-9.09-.8-13.53Zm106.38-31.74c0-1.13.04-2.28-.09-3.4-.67-5.73-4.26-9.26-10.44-10.37-4.28-.77-9.14,2.18-11.59,6.58-1.21,2.17-1.08,4.36-1.08,6.59-.03,29.26-.02,58.51-.02,87.77h.05c0,12.02,0,24.04,0,36.06,0,17.92,0,35.83.05,53.75.02,6.28,4.99,10.38,9.92,11.3,5.47,1.02,11-2.35,12.74-7.81.61-1.9.95-3.98.94-5.98-.08-17.91-.37-35.81-.4-53.72-.08-40.26-.06-80.51-.08-120.77Zm159.11-92.28c-.07-8.84-.1-17.68-.41-26.52-.24-6.83-1.94-13.44-4.08-19.89-2.52-7.56-6.29-14.51-11.05-20.92-5.59-7.53-12.12-14.14-20.13-19.01-12.86-7.81-25.89-15.34-38.97-22.78-2.48-1.41-5.49-2.49-8.3-2.6-5.19-.19-9.86,3.83-11.16,8.86-1.08,4.18.26,10,5.19,13,3.2,1.94,6.43,3.81,9.67,5.69,7.24,4.2,14.5,8.36,21.74,12.56,5.97,3.46,11.95,6.88,16.91,11.81,3.97,3.95,7.38,8.32,10.01,13.23,4.96,9.27,6.94,19.28,6.86,29.75-.05,6.58,0,13.15,0,19.73h.01c0,8.05-.07,16.1.03,24.15.06,5.07,3.22,8.91,8.23,10.42,4.82,1.45,9.8-.23,12.78-4.05,2.33-2.99,2.68-6.42,2.69-9.96.03-7.82.06-15.65,0-23.47ZM364.4,62.07c1.85,1.3,3.92,2.26,5.88,3.4,6.75,3.93,13.47,7.9,20.23,11.8,8.62,4.98,17.3,9.87,25.91,14.86,9.69,5.61,19.34,11.3,29.02,16.93,7.33,4.26,14.69,8.49,22.04,12.72,4.22,2.43,8.38,4.97,12.69,7.22,1.86.97,4.13,2.04,6.06,1.8,6.13-.75,11.97-4.84,11.42-12.44.41-5.07-2.37-8.38-6.6-10.79-2.74-1.56-5.51-3.07-8.24-4.65-6.36-3.68-12.71-7.4-19.07-11.1-6.95-4.04-13.91-8.07-20.85-12.11-8.21-4.78-16.4-9.6-24.63-14.35-7.15-4.13-14.35-8.17-21.49-12.32-7.24-4.2-14.4-8.55-21.68-12.69-5.14-2.93-11.85-1.97-15.2,2.37-4.03,5.22-4.33,9.56-.56,14.96,1.25,1.78,3.24,3.12,5.07,4.4Zm-127.59,359.93c-.03-5.01-.58-9.91-2.15-14.69-1.64-4.98-3.82-9.72-6.67-14.07-5.55-8.47-13.12-14.98-21.53-20.41-8.83-5.71-17.93-11-27.02-16.31-4.1-2.39-8.42-2.27-12.53.19-7.27,4.37-6.93,14.37-.62,19.24,1.87,1.44,3.99,2.56,6.02,3.81,6.93,4.27,13.9,8.48,20.8,12.8,4.61,2.9,8.93,6.18,12.66,10.21,3.08,3.32,5.2,7.22,6.3,11.49,1.21,4.7,1.75,9.56,1.55,14.47-.16,4.08.06,8.16-.03,12.24-.04,2.1.39,3.98,1.38,5.84,2.35,4.45,7.48,7.03,12.51,6.32,4.15-.58,9.13-4.75,9.38-9.44.09-1.8.4-3.59.61-5.38-.11,0-.22-.01-.32-.02-.12-5.43-.3-10.86-.33-16.3Zm-32.56-267.2c4.86,2.61,9.62,5.41,14.39,8.19,5.66,3.29,11.23,6.72,16.92,9.96,7.94,4.53,15.98,8.89,23.92,13.41,5.29,3.02,10.42,6.33,15.75,9.27,9.7,5.35,19.18-2.22,18.46-9.71-.45-1.7-.77-3.46-1.38-5.1-1.39-3.7-4.86-5.2-7.93-7.04-3.48-2.09-7.09-3.96-10.61-5.99-9.49-5.49-18.95-11.05-28.45-16.52-8.41-4.85-16.85-9.65-25.3-14.42-1.97-1.11-4.01-2.15-6.12-2.92-5.68-2.09-12.03.65-14.46,6.16-2.2,4.99-.46,11.9,4.82,14.73Zm-36.03,100.19c1.05.67,2.05,1.43,3.12,2.06,10.97,6.32,21.96,12.6,32.92,18.93,8.72,5.04,17.38,10.17,26.1,15.2,3.52,2.03,7.03,4.16,10.74,5.79,5.64,2.48,12.4-.17,14.91-5.76,2.69-5.98.4-12.23-4.56-15.12-3.91-2.27-7.8-4.58-11.71-6.85-9.2-5.32-18.44-10.58-27.63-15.92-10.07-5.85-20.07-11.8-30.16-17.6-2.15-1.23-4.5-2.21-6.81-1.82-5.2,0-9.75,2.54-11.09,6.34-1.61,4.56-1.69,11,4.16,14.76Zm143.95-165.79c3.51,2.48,7.15,4.78,10.84,6.99,8.33,4.99,16.73,9.88,25.09,14.82,5.84,3.45,11.66,6.92,17.5,10.37,1.88,1.11,3.83,2.01,5.91,1.71,4.73.26,8.06-1.8,10.29-5.59,3.2-5.43,1.89-12.67-4.45-16.48-4.06-2.45-8.08-4.95-12.16-7.37-11.67-6.92-23.36-13.8-35.04-20.7-1.85-1.09-3.64-2.31-5.57-3.23-4.48-2.14-9.88-1.2-13.21,2.13-3.32,3.31-4.48,9.29-2.39,13.54.71,1.45,1.87,2.87,3.18,3.8Zm224.81,293.43c-4.21,2.75-6.06,6.47-6.05,11.37.03,19.26.01,38.52.01,57.78,0,.68-.02,1.36.05,2.04.47,4.69,2.96,8.14,7.15,9.98,3.82,1.67,7.87,1.36,11.26-1.24,2.84-2.17,4.77-5.02,4.74-8.92-.08-10.2-.03-20.39-.03-30.59h-.01c0-10.42-.22-20.85.08-31.27.21-7.25-9.84-13.96-17.2-9.15Zm-143.01,95.47c-4.05-7.69-15.46-7.85-19.82-.95-1.78,2.81-2.36,5.89-2.37,9.08-.06,15.19-.1,30.39.04,45.58.02,2.29.66,4.77,1.68,6.83,2.97,6,9.78,7.51,15.42,4.89,4.34-2.02,6.59-5.68,6.56-10.62-.04-8.05,0-16.1,0-24.15h.02c0-8.05-.05-16.1.03-24.15.02-2.34-.47-4.45-1.55-6.51Zm-210.54-64.21c-2.34-1.69-4.98-3.13-7.7-4.12-6.62-2.41-15.45,3.14-14.95,11.2.38,1.62.59,3.31,1.18,4.84,1.88,4.82,6.25,6.48,10.6,8.23,3.3,1.33,6.4.53,9.05-1.13,7.79-4.85,7.32-15.06,1.82-19.03Z"/>
      </g>
      <path class="cls-5" d="m0,597.57c0-3.21,1.01-5.65,3.03-7.31,2.02-1.65,4.87-2.48,8.55-2.48,1.84,0,3.67.19,5.51.55,1.84.37,3.54.88,5.1,1.52v18.61h15.85c7.63,0,11.44,3.31,11.44,9.93,0,1.84-.28,3.75-.83,5.72-.55,1.98-1.2,3.65-1.93,5.03h-24.54v21.64c0,3.13.87,5.54,2.62,7.24,1.75,1.7,4.27,2.55,7.58,2.55,2.02,0,4.14-.3,6.34-.9,2.21-.6,4.04-1.36,5.52-2.28l8.69,15.17c-1.66,1.47-3.88,2.83-6.69,4.07-2.8,1.24-5.86,2.23-9.17,2.96-3.31.73-6.62,1.1-9.93,1.1-8.09,0-14.64-2.25-19.64-6.75-5.01-4.5-7.51-10.62-7.51-18.34v-58.04Zm92.64,83.13c-7.35,0-13.81-1.56-19.37-4.69-5.56-3.12-9.91-7.47-13.03-13.03-3.12-5.56-4.69-12.02-4.69-19.37s1.63-13.67,4.89-19.23c3.26-5.56,7.74-9.93,13.44-13.1,5.7-3.17,12.18-4.76,19.44-4.76,6.07,0,11.49,1.06,16.27,3.17,4.78,2.12,8.55,5.01,11.3,8.69s4.14,7.86,4.14,12.54c0,7.63-3.01,13.19-9.03,16.68-6.02,3.49-15.74,5.24-29.16,5.24-1.75,0-3.22-.02-4.41-.07-1.2-.04-2.3-.12-3.31-.21.55,2.85,2.48,5.15,5.79,6.89,3.31,1.75,7.49,2.62,12.55,2.62,1.84,0,3.95-.21,6.34-.62,2.39-.41,4.66-.96,6.82-1.65,2.16-.69,3.74-1.36,4.76-2l7.72,15.44c-2.12,1.38-4.89,2.64-8.34,3.79-3.45,1.15-7.1,2.04-10.96,2.69s-7.58.96-11.17.96Zm.55-57.07c-4.23,0-7.79,1.4-10.68,4.21-2.9,2.8-4.34,6.37-4.34,10.68.73.09,1.49.14,2.27.14h2.14c7.54,0,12.94-.67,16.2-2,3.26-1.33,4.89-3.29,4.89-5.86,0-2.11-.96-3.84-2.9-5.17-1.93-1.33-4.46-2-7.58-2Zm42.6,12.54c0-6.43,1.58-11.86,4.76-16.27s7.42-7.74,12.75-9.99c5.33-2.25,11.21-3.38,17.65-3.38s12.29,1.13,17.58,3.38c5.28,2.25,9.51,5.58,12.68,9.99,3.17,4.41,4.76,9.84,4.76,16.27v42.6h-22.2v-37.5c0-9.56-4.27-14.34-12.82-14.34s-12.96,4.78-12.96,14.34v37.5h-22.2v-42.6Zm83.27-5.65c0-7.81,2.9-13.76,8.68-17.85,5.79-4.09,14.38-6.13,25.78-6.13,9.01,0,16.22,1.17,21.64,3.52,5.42,2.34,8.13,5.4,8.13,9.17,0,1.75-.62,3.58-1.86,5.52-1.24,1.93-2.78,3.36-4.62,4.27-1.01-1.1-2.9-2.14-5.65-3.1-2.76-.96-5.84-1.75-9.24-2.34-3.4-.6-6.62-.9-9.65-.9-7.35,0-11.03,1.75-11.03,5.24,0,1.47.69,2.57,2.07,3.31,1.38.74,3.67,1.33,6.89,1.79l12.41,1.65c16.08,2.21,24.13,9.38,24.13,21.51,0,7.63-2.94,13.63-8.82,17.99-5.88,4.37-14.02,6.55-24.4,6.55-4.69,0-9.42-.41-14.2-1.24-4.78-.83-9.15-1.93-13.1-3.31-3.95-1.38-7.03-2.89-9.24-4.55l7.86-14.34c2.66,1.93,6.53,3.54,11.58,4.82,5.05,1.29,10.25,1.93,15.58,1.93,7.63,0,11.44-1.61,11.44-4.83,0-1.47-.76-2.62-2.28-3.45-1.52-.83-4.07-1.47-7.65-1.93l-12.41-1.65c-14.71-1.93-22.06-9.14-22.06-21.64Zm114.98,50.18c-7.26,0-13.83-1.65-19.71-4.96-5.88-3.31-10.55-7.77-13.99-13.37s-5.17-11.86-5.17-18.75,1.72-13.26,5.17-18.82c3.45-5.56,8.11-10,13.99-13.3,5.88-3.31,12.45-4.96,19.71-4.96s13.95,1.65,19.78,4.96c5.83,3.31,10.48,7.74,13.92,13.3,3.45,5.56,5.17,11.83,5.17,18.82s-1.72,13.14-5.17,18.75c-3.45,5.61-8.09,10.06-13.92,13.37-5.84,3.31-12.43,4.96-19.78,4.96Zm11.58-49.42c-3.03-3.26-6.89-4.89-11.58-4.89s-8.55,1.63-11.58,4.89c-3.03,3.26-4.55,7.38-4.55,12.34s1.52,9.08,4.55,12.34c3.03,3.26,6.89,4.89,11.58,4.89s8.55-1.63,11.58-4.89c3.03-3.26,4.55-7.38,4.55-12.34s-1.52-9.08-4.55-12.34Zm39.7,3.38c0-8.91,2.69-15.83,8.07-20.75,5.38-4.92,12.89-7.38,22.54-7.38,6.8,0,12.2,1.13,16.2,3.38s6,5.17,6,8.75c0,1.84-.51,3.77-1.52,5.79-1.01,2.02-2.21,3.68-3.58,4.96-1.75-.92-3.81-1.65-6.2-2.21-2.39-.55-4.64-.83-6.76-.83-8.36,0-12.54,4.37-12.54,13.1v39.29h-22.2v-44.12Zm59-.96c0-5.61,1.31-10.43,3.93-14.48,2.62-4.04,6.29-7.17,11.03-9.38,4.73-2.21,10.22-3.31,16.47-3.31,5.7,0,10.69.92,14.96,2.76,4.27,1.84,7.7,4.41,10.27,7.72,2.67-3.4,6.09-6,10.27-7.79,4.18-1.79,9.08-2.69,14.68-2.69,6.25,0,11.72,1.1,16.41,3.31,4.69,2.21,8.34,5.33,10.96,9.38,2.62,4.04,3.93,8.87,3.93,14.48v45.08h-22.2v-38.74c0-8.73-3.68-13.1-11.03-13.1-4.04,0-7.08,1.29-9.1,3.86-2.02,2.57-3.03,6.3-3.03,11.17v36.81h-22.2v-36.81c0-10.02-4-15.03-11.99-15.03-7.44,0-11.17,4.37-11.17,13.1v38.74h-22.2v-45.08Zm131.11-35.36c-2.3-2.43-3.45-5.35-3.45-8.75s1.15-6.43,3.45-8.82c2.3-2.39,5.19-3.58,8.69-3.58s6.52,1.2,8.82,3.58c2.3,2.39,3.45,5.33,3.45,8.82s-1.15,6.32-3.45,8.75c-2.3,2.44-5.24,3.65-8.82,3.65s-6.39-1.22-8.69-3.65Zm19.85,80.44h-22.2v-60.52c0-3.22,1.01-5.65,3.03-7.31,2.02-1.65,4.87-2.48,8.55-2.48,1.84,0,3.68.18,5.51.55,1.84.37,3.54.88,5.1,1.52v68.24Zm15.85-42.6c0-6.43,1.58-11.86,4.76-16.27s7.42-7.74,12.75-9.99c5.33-2.25,11.21-3.38,17.65-3.38s12.29,1.13,17.58,3.38c5.28,2.25,9.51,5.58,12.68,9.99,3.17,4.41,4.76,9.84,4.76,16.27v42.6h-22.2v-37.5c0-9.56-4.27-14.34-12.82-14.34s-12.96,4.78-12.96,14.34v37.5h-22.2v-42.6Zm158.95,4.96c0,8.27-1.54,15.37-4.62,21.3-3.08,5.93-7.44,10.46-13.1,13.58-5.65,3.12-12.34,4.69-20.06,4.69s-14.61-1.58-20.4-4.76c-5.79-3.17-10.27-7.56-13.44-13.17-3.17-5.6-4.76-11.99-4.76-19.16s1.52-13.53,4.55-19.09,7.12-9.95,12.27-13.17c5.15-3.22,10.89-4.83,17.23-4.83,4.14,0,7.95.67,11.44,2,3.49,1.33,6.39,3.19,8.69,5.58v-34.88c1.56-.64,3.29-1.15,5.17-1.52,1.88-.37,3.7-.55,5.45-.55,3.67,0,6.53.83,8.55,2.48s3.03,4.09,3.03,7.31v54.18Zm-49.22-9.86c-2.94,3.08-4.41,7.15-4.41,12.2s1.47,9.12,4.41,12.2c2.94,3.08,6.76,4.62,11.44,4.62s8.5-1.54,11.44-4.62c2.94-3.08,4.41-7.14,4.41-12.2s-1.47-9.12-4.41-12.2c-2.94-3.08-6.75-4.62-11.44-4.62s-8.5,1.54-11.44,4.62Z"/>
    </g>
  </g>
</svg>